<?xml version="1.0" encoding="UTF-8"?>
<svg width="1920px" height="1080px" viewBox="0 0 1920 1080" version="1.1" xmlns="http://www.w3.org/2000/svg" xmlns:xlink="http://www.w3.org/1999/xlink">
    <title>Extra Large@1x</title>
    <g id="Extra-Large" stroke="none" stroke-width="1" fill="none" fill-rule="evenodd">
        <rect fill="#F4F4F4" x="0" y="0" width="1920" height="1080"></rect>
        <g id="vecteezy_study-hard-to-read-book-illustration_" transform="translate(-630.000000, 492.000000)">
            <path d="M1267,510 C1267,534.299585 983.376055,554 633.500483,554 C283.627323,554 0,534.299585 0,510 C0,485.700415 283.627323,466 633.500483,466 C983.376055,466 1267,485.700415 1267,510 Z" id="Fill-2" fill="#96AFB1"></path>
            <polygon id="Fill-4" fill="#2D3D43" points="976 353 1003 353 1003 83 976 83"></polygon>
            <polygon id="Fill-5" fill="#5B6A6E" points="413 135 1067 135 1067 106 413 106"></polygon>
            <polygon id="Fill-6" fill="#5B6A6E" points="413 189 1067 189 1067 160 413 160"></polygon>
            <polygon id="Fill-7" fill="#5B6A6E" points="413 244 1067 244 1067 215 413 215"></polygon>
            <polyline id="Fill-8" fill="#5E6C71" points="415.055063 317 1065.94735 317 1105 353 376 353 415.055063 317"></polyline>
            <polygon id="Fill-9" fill="#38474D" points="376 373 1105 373 1105 353 376 353"></polygon>
            <polygon id="Fill-12" fill="#8B9EA4" points="1046 519 1066 519 1066 373 1046 373"></polygon>
            <polygon id="Fill-13" fill="#77888D" points="982 498 1002 498 1002 373 982 373"></polygon>
            <path d="M833,177 L833,222 L1029.05173,222 C1034.8113,222 1040.04596,219.468621 1043.84554,215.389138 C1047.64513,211.308103 1050,205.684138 1050,199.5 C1050,193.316379 1047.64513,187.692414 1043.84554,183.611379 C1040.04596,179.531897 1034.8113,177 1029.05173,177 L833,177" id="Fill-36" fill="#FEEDC9"></path>
            <polygon id="Fill-37" fill="#DBCC86" points="833 186 1049 186 1049 183 833 183"></polygon>
            <polygon id="Fill-38" fill="#DBCC86" points="833 194 1051 194 1051 191 833 191"></polygon>
            <polygon id="Fill-39" fill="#DBCC86" points="833 202 1052 202 1052 199 833 199"></polygon>
            <polygon id="Fill-40" fill="#DBCC86" points="833 210 1052 210 1052 207 833 207"></polygon>
            <polygon id="Fill-41" fill="#DBCC86" points="833 218 1049 218 1049 215 833 215"></polygon>
            <path d="M828.221085,173 C826.439618,173 825,174.448755 825,176.234924 C825,178.022061 826.439618,179.470816 828.221085,179.470816 L1029.60874,179.470816 C1035.36721,179.470816 1040.60087,181.837067 1044.39973,185.649657 C1048.19859,189.463697 1050.55301,194.719724 1050.55301,200.498791 C1050.55301,206.278343 1048.19859,211.53437 1044.39973,215.34841 C1040.60087,219.160999 1035.36721,221.526767 1029.60874,221.526767 L828.221085,221.526767 C826.439618,221.526767 825,222.977456 825,224.761208 C825,226.549795 826.439618,228 828.221085,228 L1029.60874,228 C1037.14868,228 1043.99529,224.906229 1048.95451,219.92284 C1053.91854,214.940419 1057,208.064996 1057,200.498791 C1057,192.933071 1053.91854,186.057164 1048.95451,181.075226 C1043.99529,176.093288 1037.14868,173 1029.60874,173 L828.221085,173" id="Fill-42" fill="#E46C73"></path>
            <path d="M1048,277 L1048,233 L851.947805,233 C846.188363,233 840.953819,235.478161 837.154321,239.463448 C833.359638,243.453793 831,248.956322 831,255 C831,261.048736 833.359638,266.546207 837.154321,270.536552 C840.953819,274.526897 846.188363,277 851.947805,277 L1048,277" id="Fill-43" fill="#FEEDC9"></path>
            <polygon id="Fill-44" fill="#DBCC86" points="832 273 1048 273 1048 270 832 270"></polygon>
            <polygon id="Fill-45" fill="#DBCC86" points="830 265 1048 265 1048 262 830 262"></polygon>
            <polygon id="Fill-46" fill="#DBCC86" points="829 257 1048 257 1048 254 829 254"></polygon>
            <polygon id="Fill-47" fill="#DBCC86" points="829 249 1048 249 1048 246 829 246"></polygon>
            <polygon id="Fill-48" fill="#DBCC86" points="832 241 1048 241 1048 238 832 238"></polygon>
            <path d="M1053.77891,283 C1055.55557,283 1057,281.549706 1057,279.761009 C1057,277.977147 1055.55557,276.526852 1053.77891,276.526852 L852.386448,276.526852 C846.627976,276.526852 841.394314,274.162872 837.595455,270.348598 C833.801411,266.534324 831.442171,261.279423 831.442171,255.497583 C831.442171,249.720577 833.801411,244.460842 837.595455,240.646568 C841.394314,236.837128 846.627976,234.468313 852.386448,234.468313 L1053.77891,234.468313 C1055.55557,234.468313 1057,233.018019 1057,231.234157 C1057,229.44546 1055.55557,228 1053.77891,228 L852.386448,228 C844.851323,228 837.999896,231.089127 833.040677,236.073306 C828.076642,241.057484 825,247.93188 825,255.497583 C825,263.063286 828.076642,269.942516 833.040677,274.92186 C837.999896,279.906038 844.851323,283 852.386448,283 L1053.77891,283" id="Fill-49" fill="#81C1C2"></path>
            <path d="M833,332 C844.889307,332 853.806287,332 859.750941,332 C897.373338,332 953.806935,332 1029.05173,332 C1034.8113,332 1040.04596,329.634483 1043.84554,325.830345 C1047.64513,322.021379 1050,316.773793 1050,311 C1050,305.231034 1047.64513,299.978621 1043.84554,296.169655 C1040.04596,292.365517 1034.8113,290 1029.05173,290 L832,287.687429 L833,332 Z" id="Fill-50" fill="#FEEDC9"></path>
            <polygon id="Fill-51" fill="#DBCC86" points="833 296 1049 296 1049 293 833 293"></polygon>
            <polygon id="Fill-52" fill="#DBCC86" points="833 304 1051 304 1051 301 833 301"></polygon>
            <polygon id="Fill-53" fill="#DBCC86" points="833 312 1052 312 1052 309 833 309"></polygon>
            <polygon id="Fill-54" fill="#DBCC86" points="833 320 1052 320 1052 317 833 317"></polygon>
            <polygon id="Fill-55" fill="#DBCC86" points="833 328 1049 328 1049 325 833 325"></polygon>
            <path d="M828.221085,283 C826.439618,283 825,284.450167 825,286.238706 C825,288.022412 826.439618,289.472579 828.221085,289.472579 L1029.60874,289.472579 C1035.36721,289.472579 1040.60087,291.841185 1044.39973,295.65029 C1048.19859,299.464229 1050.55301,304.723501 1050.55301,310.5 C1050.55301,316.281332 1048.19859,321.535771 1044.39973,325.34971 C1040.60087,329.158815 1035.36721,331.527421 1029.60874,331.527421 L828.221085,331.527421 C826.439618,331.527421 825,332.977588 825,334.761294 C825,336.549833 826.439618,338 828.221085,338 L1029.60874,338 C1037.14868,338 1043.99529,334.90631 1048.95451,329.92257 C1053.91854,324.943663 1057,318.065038 1057,310.5 C1057,302.934962 1053.91854,296.061171 1048.95451,291.07743 C1043.99529,286.09369 1037.14868,283 1029.60874,283 L828.221085,283" id="Fill-56" fill="#12172E"></path>
            <path d="M1118.98389,187.431613 C1143.08211,153.637176 1178.73534,144.854479 1148.46191,94.978518 C1071.60211,-31.659506 1361.39789,-31.659506 1284.53809,94.978518 C1254.26466,144.854479 1289.91789,153.637176 1314.01611,187.431613 C1354.27303,243.887606 1269.78702,263.908761 1284.89963,313.983343 C1322.34613,438.005552 1110.65387,438.005552 1148.10037,313.983343 C1163.21298,263.908761 1078.72697,243.887606 1118.98389,187.431613 Z" id="Fill-64" fill="#96AFB1"></path>
            <polygon id="Fill-65" fill="#1F5C5C" points="1213.0913 130.249836 1213.0913 211.226548 1183.16968 164.059384 1181.04344 165.410936 1213.0913 215.929696 1213.0913 326.866039 1161.12624 244.952077 1159 246.304111 1213.0913 331.569186 1213.0913 508 1215.60807 508 1215.60807 345.41788 1252 288.048169 1249.87376 286.696135 1215.60807 340.714732 1215.60807 244.232602 1242.79595 201.379876 1240.66489 200.02929 1215.60807 239.529454 1215.60807 158.551293 1242.79595 115.699533 1240.66489 114.34943 1215.60807 153.849594 1215.60807 57 1213.0913 57 1213.0913 125.546688 1177.91918 70.1026606 1175.79294 71.4532463"></polygon>
        </g>
    </g>
</svg>