<svg width="40" height="50" viewBox="0 0 40 50" fill="#96AFB1" xmlns="http://www.w3.org/2000/svg">
<g filter="url(#filter0_b_1_42)">
<path d="M3.46663 26.0653H15.8666C17.0033 26.0653 17.9333 25.1353 17.9333 23.9986V7.46529C17.9333 6.32862 17.0033 5.39862 15.8666 5.39862L3.46663 5.39862C2.32996 5.39862 1.39996 6.32862 1.39996 7.46529L1.39996 23.9986C1.39996 25.1353 2.32996 26.0653 3.46663 26.0653ZM3.46663 42.5986H15.8666C17.0033 42.5986 17.9333 41.6686 17.9333 40.5319L17.9333 32.2653C17.9333 31.1286 17.0033 30.1986 15.8666 30.1986H3.46663C2.32996 30.1986 1.39996 31.1286 1.39996 32.2653L1.39996 40.5319C1.39996 41.6686 2.32996 42.5986 3.46663 42.5986ZM24.1333 42.5986H36.5333C37.67 42.5986 38.6 41.6686 38.6 40.5319V23.9986C38.6 22.862 37.67 21.932 36.5333 21.932L24.1333 21.932C22.9966 21.932 22.0666 22.862 22.0666 23.9986L22.0666 40.5319C22.0666 41.6686 22.9966 42.5986 24.1333 42.5986ZM22.0666 7.46529V15.732C22.0666 16.8686 22.9966 17.7986 24.1333 17.7986H36.5333C37.67 17.7986 38.6 16.8686 38.6 15.732V7.46529C38.6 6.32862 37.67 5.39862 36.5333 5.39862L24.1333 5.39862C22.9966 5.39862 22.0666 6.32862 22.0666 7.46529Z" fill="#96AFB1"/>
</g>
<defs>
<filter id="filter0_b_1_42" x="-4" y="-4" width="48" height="57.5238" filterUnits="userSpaceOnUse" color-interpolation-filters="sRGB">
<feFlood flood-opacity="0" result="BackgroundImageFix"/>
<feGaussianBlur in="BackgroundImage" stdDeviation="2"/>
<feComposite in2="SourceAlpha" operator="in" result="effect1_backgroundBlur_1_42"/>
<feBlend mode="normal" in="SourceGraphic" in2="effect1_backgroundBlur_1_42" result="shape"/>
</filter>
</defs>
</svg>
