<?xml version="1.0" encoding="UTF-8"?>
<svg width="65px" height="62px" viewBox="0 0 65 62" version="1.1" xmlns="http://www.w3.org/2000/svg" xmlns:xlink="http://www.w3.org/1999/xlink">
    <title>icon-sign-out</title>
    <g id="Sign-up-Copy-2" stroke="none" stroke-width="1" fill="none" fill-rule="evenodd">
        <g id="Extra-Large" transform="translate(-30.000000, -983.000000)" fill="#96AFB1">
            <g id="icon-sign-out" transform="translate(30.000000, 983.000000)">
                <path d="M28,58.5554991 C28,57.6419988 27.6313147,56.7659986 26.9748956,56.1199984 C26.3184765,55.4739982 25.4281785,55.1111648 24.499945,55.1111648 L7,55.1111648 L7,6.88890185 L24.499945,6.88890185 C25.4281785,6.88890185 26.3184765,6.52600175 26.9748956,5.88003491 C27.6313147,5.23408474 28,4.3579845 28,3.44445093 C28,2.53093401 27.6313147,1.65481711 26.9748956,1.00886694 C26.3184765,0.362900098 25.4281785,0 24.499945,0 L7,0 C5.14349067,0 3.36301316,0.725800195 2.05025966,2.01771721 C0.737506154,3.30963422 0,5.06185136 0,6.88890185 L0,55.1111648 C0,56.9381653 0.737506154,58.6903324 2.05025966,59.9823328 C3.36301316,61.2741665 5.14349067,62 7,62 L24.499945,62 C25.4281785,62 26.3184765,61.6371666 26.9748956,60.9911664 C27.6313147,60.3451662 28,59.469166 28,58.5554991 Z" id="Path"></path>
                <path d="M64.019538,33.4217891 C64.6466355,32.7895545 64.9986728,31.9386783 65,31.0519376 L65,31.0315376 C64.998341,30.1332808 64.6370134,29.2723691 63.9954827,28.6379958 L50.2811259,15.03796 C49.9649228,14.7132056 49.5865076,14.4542247 49.1682767,14.2760375 C48.7500458,14.0978503 48.3001282,14.0040598 47.8449019,14 C47.3896756,13.9962124 46.938099,14.0822378 46.516716,14.2531862 C46.0953331,14.4241512 45.7126045,14.6766831 45.3907608,14.9958439 C45.0687512,15.3150048 44.8142625,15.6947075 44.6417277,16.1125778 C44.4693588,16.5304482 44.3825938,16.978096 44.3865753,17.4295276 C44.3905569,17.8809592 44.4851192,18.3271264 44.6647876,18.7420355 C44.844456,19.15678 45.1057467,19.5318763 45.4332309,19.8456081 L53.2948437,27.6416875 L20.4286307,27.6416875 C19.5193393,27.6416875 18.6472093,28 18.0041855,28.6376668 C17.3611617,29.2751659 17,30.140026 17,31.0417376 C17,31.9434492 17.3611617,32.8083093 18.0041855,33.4459729 C18.6472093,34.0834721 19.5193393,34.4417877 20.4286307,34.4417877 L53.2948437,34.4417877 L45.4332309,42.2378671 C44.8086219,42.8791501 44.4630547,43.7380876 44.4708519,44.6294347 C44.4786492,45.5209464 44.8393132,46.3737968 45.4748715,47.0040572 C46.1105957,47.6344821 46.9706152,47.9921397 47.8694549,48 C48.7684606,48.0076042 49.6346182,47.6649176 50.2811259,47.0455152 L63.9954827,33.4454794 L64.019538,33.4217891 Z" id="Path" fill-rule="nonzero"></path>
            </g>
        </g>
    </g>
</svg>