<svg width="42" height="41" viewBox="0 0 42 41" fill="none" xmlns="http://www.w3.org/2000/svg">
<path fill-rule="evenodd" clip-rule="evenodd" d="M17.9333 36.5345C17.9333 35.9864 17.7156 35.4608 17.328 35.0732C16.9404 34.6856 16.4147 34.4679 15.8666 34.4679H5.5333V5.53455H15.8666C16.4147 5.53455 16.9404 5.31681 17.328 4.92923C17.7156 4.54166 17.9333 4.016 17.9333 3.46788C17.9333 2.91977 17.7156 2.3941 17.328 2.00653C16.9404 1.61895 16.4147 1.40121 15.8666 1.40121H5.5333C4.43707 1.40121 3.38574 1.83669 2.61059 2.61184C1.83544 3.38699 1.39996 4.43832 1.39996 5.53455V34.4679C1.39996 35.5641 1.83544 36.6154 2.61059 37.3906C3.38574 38.1657 4.43707 38.6012 5.5333 38.6012H15.8666C16.4147 38.6012 16.9404 38.3835 17.328 37.9959C17.7156 37.6083 17.9333 37.0827 17.9333 36.5345Z" fill="#C4C4C4"/>
<path d="M40.0749 21.4526C40.4529 21.0683 40.6651 20.5511 40.6659 20.0121V19.9997C40.6649 19.4537 40.4471 18.9304 40.0604 18.5448L31.7937 10.2781C31.6031 10.0807 31.375 9.92328 31.1229 9.81497C30.8708 9.70666 30.5996 9.64965 30.3252 9.64726C30.0508 9.64488 29.7786 9.69717 29.5246 9.80108C29.2706 9.905 29.0399 10.0585 28.8459 10.2525C28.6518 10.4465 28.4984 10.6773 28.3944 10.9313C28.2905 11.1853 28.2382 11.4574 28.2406 11.7318C28.243 12.0062 28.3 12.2774 28.4083 12.5296C28.5166 12.7817 28.6741 13.0097 28.8715 13.2004L33.6103 17.9392H13.7993C13.2512 17.9392 12.7255 18.157 12.3379 18.5446C11.9503 18.9321 11.7326 19.4578 11.7326 20.0059C11.7326 20.554 11.9503 21.0797 12.3379 21.4673C12.7255 21.8548 13.2512 22.0726 13.7993 22.0726H33.6103L28.8715 26.8114C28.495 27.2012 28.2867 27.7233 28.2914 28.2651C28.2961 28.807 28.5135 29.3254 28.8966 29.7085C29.2798 30.0917 29.7982 30.3091 30.34 30.3138C30.8819 30.3185 31.404 30.1102 31.7937 29.7337L40.0604 21.467L40.0749 21.4526Z" fill="#96AFB1"/>
</svg>
