<?xml version="1.0" encoding="UTF-8"?>
<svg width="833px" height="906px" viewBox="0 0 833 906" version="1.1" xmlns="http://www.w3.org/2000/svg" xmlns:xlink="http://www.w3.org/1999/xlink">
    <title>Group</title>
    <g id="Sign-up" stroke="none" stroke-width="1" fill="none" fill-rule="evenodd">
        <g id="Extra-Large" transform="translate(-1012.000000, -87.000000)" fill="#21364F">
            <g id="Group" transform="translate(1428.754722, 539.826521) scale(-1, 1) rotate(25.000000) translate(-1428.754722, -539.826521) translate(1139.828589, 175.383392)">
                <path d="M21.3265795,694.825434 L9.40616461,690.299229 C112.548658,397.149576 458.717507,124.617978 459.71529,123.825434 L467.406165,134.255862 C466.417212,135.041077 123.206392,405.258263 21.3265795,694.825434 Z" id="Fill-107"></path>
                <path d="M198.605012,547.417977 C183.522635,570.583519 162.665157,590.369449 136.765503,604.317054 C110.865849,618.255718 83.005839,624.693075 55.6050116,624.398029 C70.6785573,601.223547 91.5360354,581.446558 117.43569,567.498952 C143.335344,553.560288 171.204184,547.113991 198.605012,547.417977" id="Fill-108"></path>
                <path d="M124.564439,325.969958 C111.545599,351.106646 104.179099,379.910637 104.24025,410.520637 C104.302167,441.130636 111.791735,469.89777 124.916062,494.969958 C137.934901,469.83327 145.301402,441.029279 145.24025,410.428493 C145.169543,379.818494 137.679975,351.042146 124.564439,325.969958" id="Fill-109"></path>
                <path d="M338.154091,334.609824 C321.484125,356.445738 299.281036,374.512252 272.480249,386.441295 C245.670637,398.361469 217.44024,402.725104 190.154091,400.445726 C206.824057,378.609812 229.018321,360.543298 255.827933,348.614255 C282.62872,336.694081 310.859117,332.330445 338.154091,334.609824" id="Fill-110"></path>
                <path d="M296.553303,122.189866 C283.5405,147.32267 276.163648,176.130389 276.233988,206.739627 C276.295535,237.348865 283.786689,266.125253 296.905,291.189866 C309.926594,266.060748 317.294654,237.255794 317.23349,206.645635 C317.162768,176.034554 309.671614,147.261852 296.553303,122.189866" id="Fill-111"></path>
                <path d="M512.192401,221.242902 C488.439169,236.08148 460.933085,245.031034 431.408289,246.109451 C401.883492,247.18599 373.861614,240.264577 349.192401,227.192048 C372.945634,212.354409 400.451717,203.404856 429.976514,202.328317 C459.501311,201.249899 487.523188,208.170373 512.192401,221.242902" id="Fill-112"></path>
                <path d="M577.852266,147.451251 C554.769917,161.997614 527.565413,170.789534 499.349813,171.826586 C471.134213,172.867323 448.630868,175.199309 425.246055,163.194 L424.943591,163.276891 L425.012725,163.07427 C424.286811,162.702183 423.569538,162.325492 422.852266,161.943275 C423.897928,161.284756 424.952232,160.63821 426.006537,160.002716 C434.6743,134.14364 445.321044,101.818183 465.931827,81.4289602 C486.551251,61.0388159 511.733566,46.7540182 537.728214,39.723982 C529.207362,66.8236525 507.628693,98.7853118 493.343736,112.911697 C479.058778,127.038081 463.7368,127.190047 455.371501,132.8616 C464.609625,130.794863 478.73903,129.611371 497.958477,128.904039 C517.177924,128.197627 553.879808,134.635457 577.852266,147.451251" id="Fill-113"></path>
                <path d="M189.440282,102.808677 C189.334509,103.921815 154.42045,488.351332 -1.13686838e-13,723.586476 L8.35610401,728.886259 C164.68929,490.735317 199.894227,103.008565 200,101.886259 L189.440282,102.808677" id="Fill-121"></path>
                <path d="M213.452575,443.823909 C201.882615,466.732485 185.262487,488.007326 164.07316,505.388436 C142.883833,522.778622 119.645937,534.214757 96.4525755,539.823909 C108.022536,516.906258 124.642664,495.640492 145.831991,478.250306 C167.021318,460.86012 190.259214,449.433061 213.452575,443.823909" id="Fill-123"></path>
                <path d="M115.07891,300.298905 C106.867204,324.474624 103.787814,350.074065 107.12382,375.076461 C110.459825,400.069672 119.830727,421.480615 133.511005,438.298905 C141.731561,414.123187 144.81095,388.51456 141.474945,363.52135 C138.13009,338.528139 128.768037,317.108011 115.07891,300.298905" id="Fill-124"></path>
                <path d="M277.135901,208.899594 C265.573968,231.810242 248.943667,253.081758 227.752727,270.465097 C206.561786,287.85479 183.322121,299.290601 160.135901,304.899594 C171.697835,281.982592 188.319228,260.71743 209.510169,243.327737 C230.701109,225.941674 253.940774,214.508587 277.135901,208.899594" id="Fill-125"></path>
                <path d="M111.185924,129.718306 C111.59505,153.134109 117.408058,175.72406 129.178974,195.284697 C140.949889,214.846227 157.280862,229.051772 176.185924,237.718306 C175.78532,214.301611 169.963789,191.712553 158.192874,172.151916 C146.421958,152.590386 130.090985,138.383948 111.185924,129.718306" id="Fill-126"></path>
                <path d="M127.682998,35.3756922 C128.118143,59.8532746 134.509323,83.8072772 146.820278,103.917029 C159.131232,124.025848 167.90664,140.949324 187.161771,150.080702 L187.243361,150.333626 L187.361212,150.171232 C187.95047,150.453088 188.548793,150.728411 189.147116,151 C189.128985,149.891243 189.101789,148.786219 189.056461,147.682129 C203.253041,126.543884 221.093953,100.249172 225.916801,74.0533895 C230.730584,47.8594739 229.144121,22.0836753 222.073027,-1.13686838e-13 C206.933636,21.7635544 194.414174,55.4042474 191.078069,73.5531423 C187.732898,91.7020372 194.713336,102.380822 194.586419,111.483269 C191.776113,103.893697 186.073911,93.43237 177.679254,79.7325022 C169.293662,66.0354344 147.790287,44.4361402 127.682998,35.3756922" id="Fill-127"></path>
            </g>
        </g>
    </g>
</svg>