<?xml version="1.0" encoding="UTF-8"?>
<svg width="259px" height="423px" viewBox="0 0 259 423" version="1.1" xmlns="http://www.w3.org/2000/svg" xmlns:xlink="http://www.w3.org/1999/xlink">
    <title>Group 2</title>
    <g id="Home" stroke="none" stroke-width="1" fill="none" fill-rule="evenodd">
        <g id="Extra-Large" transform="translate(60.000000, -577.000000)">
            <g id="Group-2" transform="translate(-60.000000, 577.000000)">
                <path d="M162.56245,298.641074 C162.56245,298.641074 139.985577,206.894941 178.583346,156.984869 C178.583346,156.984869 216.450261,107.074798 220.090058,83.5894215 C220.090058,83.5894215 263.058477,56.4280733 258.687826,104.872132 C258.687826,104.872132 233.194774,173.869542 241.936076,208.368247 C254.237577,256.929003 196.080422,214.472986 181.492289,293.506383 C175.667167,325.065769 162.56245,298.641074 162.56245,298.641074" id="Fill-3" fill="#79A7AA"></path>
                <path d="M126,273.996521 C126,273.996521 124.484495,193.092927 81.2817397,160.44278 C81.2817397,160.44278 38.680835,127.633047 30.4434516,109.026598 C30.4434516,109.026598 -11.3598192,96.1652986 3.00484332,135.242468 C3.00484332,135.242468 39.5219763,186.600618 39.8772859,217.074571 C40.3848712,259.974586 79.4326792,211.887979 109.09016,273.97476 C120.931399,298.76885 126,273.996521 126,273.996521" id="Fill-4" fill="#79A7AA"></path>
                <path d="M103.65323,74.761403 C89.0883078,98.9569417 112.386395,140.018687 123.311896,155.413199 C134.230162,170.80771 109.477752,253.659763 128.40564,291.049556 C147.340762,328.446635 166.999428,258.060276 166.999428,258.060276 C166.999428,258.060276 192.482616,122.423919 172.093172,93.8278664 C151.703727,65.2318142 157.528249,27.8420206 157.528249,27.8420206 C157.528249,27.8420206 128.40564,-21.2849042 107.292652,10.975814 C107.292652,10.975814 118.210917,50.5658644 103.65323,74.761403 Z" id="Fill-5" fill="#79A7AA"></path>
                <path d="M132.666262,48 C132.697006,48.2174249 143.519013,123.279764 143.519013,162.003147 C143.519013,170.939312 143.127023,183.760136 142.68123,198.29137 C141.26699,244.747833 139.299353,308.996905 148,327.593985 L144.602751,329 C135.579288,309.70716 137.554612,244.987001 138.984223,198.197153 C139.42233,183.919581 139.806634,171.323429 139.806634,162.003147 C139.806634,123.424714 129.023058,48.6667698 129,48.4565924 L132.666262,48" id="Fill-6" fill="#1F5C5C"></path>
                <path d="M233,113.655572 C232.878182,113.895194 189.238733,196.535839 189.940977,215.800019 C190.213276,223.300922 186.788045,241.141891 182.151801,261.30647 C174.31963,295.36188 163.019234,336.250156 160.296247,345 L157,343.947114 C159.715821,335.226315 170.980388,294.461481 178.783896,260.51499 C183.362814,240.590034 186.752216,223.0613 186.487083,215.92346 C185.756176,195.729837 229.832736,112.239622 229.96172,112 L233,113.655572" id="Fill-7" fill="#1F5C5C"></path>
                <path d="M27.0024927,133 C27.0965467,133.16734 61.0066269,191.212386 81.0039518,203.420908 C89.4688108,208.586611 100.805934,229.162118 111.462974,253.018938 C127.452152,288.807805 142.110105,332.301573 143,341.665321 L139.527237,342 C138.666282,332.861798 124.145793,289.95008 108.286843,254.452238 C97.8757904,231.141092 86.9727626,211.154912 79.2024562,206.411195 C58.4309946,193.729757 24.094054,134.957147 24,134.789807 L27.0024927,133" id="Fill-8" fill="#1F5C5C"></path>
                <polygon id="Fill-9" fill="#21364F" points="114.351946 423 184.640778 423 211 314 88 314"></polygon>
            </g>
        </g>
    </g>
</svg>