<?xml version="1.0" encoding="UTF-8"?>
<svg width="871px" height="620px" viewBox="0 0 871 620" version="1.1" xmlns="http://www.w3.org/2000/svg" xmlns:xlink="http://www.w3.org/1999/xlink">
    <title>Group 5</title>
    <g id="Home" stroke="none" stroke-width="1" fill="none" fill-rule="evenodd">
        <g id="Extra-Large" transform="translate(-957.000000, -229.000000)">
            <g id="Group-4" transform="translate(957.000000, 229.000000)">
                <path d="M434.541044,568 C220.507729,568 47,579.638465 47,593.998312 C47,608.358159 220.507729,620 434.541044,620 C648.570668,620 822.081081,608.358159 822.081081,593.998312 C822.081081,579.638465 648.570668,568 434.541044,568" id="Fill-5" fill="#93BDBF"></path>
                <g id="vecteezy_illustration-reading-books-design_">
                    <path d="M411,39.8796252 C410.816429,40.2757929 346.791347,177.036371 360.274452,280.423687 L355.894972,281 C342.24328,176.333163 406.822822,38.4006997 407.006393,38 L411,39.8796252" id="Fill-2" fill="#21364F"></path>
                    <path d="M390,207 C389.030417,216.798326 385.72707,226.493389 379.93212,235.186768 C374.133412,243.880534 366.534586,250.539606 358,255 C358.973341,245.200901 362.276688,235.506611 368.071638,226.812845 C373.866588,218.119466 381.469172,211.460394 390,207" id="Fill-3" fill="#21364F"></path>
                    <path d="M333.008253,155 C332.846121,164.551763 335.069653,174.277194 339.956792,183.333458 C344.843932,192.389722 351.811772,199.698425 359.991747,205 C360.15388,195.448237 357.930347,185.722056 353.039348,176.666542 C348.156069,167.610278 341.184368,160.3012 333.008253,155" id="Fill-4" fill="#21364F"></path>
                    <path d="M403,119 C401.26156,128.59333 397.098764,137.913975 390.397294,146.063563 C383.691882,154.214298 375.251971,160.225619 366,164 C367.734498,154.40667 371.901236,145.087173 378.602706,136.936437 C385.304176,128.785702 393.744087,122.774381 403,119" id="Fill-5" fill="#21364F"></path>
                    <path d="M355.008253,63 C354.846121,72.5518346 357.069654,82.2780891 361.956796,91.3332958 C366.843937,100.389628 373.811781,107.69876 381.99176,113 C382.153892,103.44854 379.926499,93.7230362 375.039357,84.6667042 C370.152215,75.6103722 363.184371,68.3012401 355.008253,63" id="Fill-6" fill="#21364F"></path>
                    <path d="M439,59 C433.971289,67.1663678 426.903406,74.2145929 418.028329,79.2858722 C409.153253,84.3571515 399.526115,86.8486242 390,87 C395.028711,78.8347647 402.096594,71.7865396 410.971671,66.7145053 C419.846747,61.643226 429.473885,59.1517533 439,59" id="Fill-7" fill="#21364F"></path>
                    <path d="M449,25.6836812 C443.800837,33.9168598 436.348059,41.1069052 427.329735,46.1349516 C418.31141,51.1626175 411.357288,55.6251419 401.832576,55.9246478 L401.751399,56 L401.739803,55.9280729 C401.446021,55.9372065 401.148374,55.9432956 400.854592,55.9478624 C401.090391,55.5756682 401.330055,55.2053769 401.573584,54.8377495 C400.27476,45.6139559 398.589381,34.1162767 402.052912,24.5393173 C405.516444,14.9627384 411.438464,6.45821582 418.779141,0 C420.321495,9.57239261 418.388721,22.7890913 415.99208,29.4235095 C413.591575,36.0586888 408.62821,38.6651897 406.807537,41.7683301 C409.486362,39.6044282 413.896953,36.8868018 420.03931,33.4617021 C426.181667,30.0366024 439.154448,25.836669 449,25.6836812" id="Fill-8" fill="#21364F"></path>
                    <path d="M295,154.616154 C295.160475,154.813515 350.719198,222.891623 357.420938,283 L360,282.712515 C353.218023,221.860326 297.177874,153.198502 297.017399,153 L295,154.616154" id="Fill-9" fill="#21364F"></path>
                    <path d="M331,246 C332.828748,251.267036 335.933539,256.151646 340.27728,260.136811 C344.62473,264.121594 349.702937,266.731473 355,268 C353.171252,262.732964 350.066461,257.848354 345.72272,253.863951 C341.37527,249.879549 336.300773,247.268527 331,246" id="Fill-10" fill="#21364F"></path>
                    <path d="M354.773863,208 C356.313772,213.392575 356.453763,219.207128 354.90562,225.003053 C353.357477,230.798978 350.306482,235.886285 346.226137,240 C344.686228,234.607425 344.546237,228.792872 346.09438,222.996947 C347.642523,217.201402 350.693518,212.114096 354.773863,208" id="Fill-11" fill="#21364F"></path>
                    <path d="M312,200 C314.237333,205.075812 317.742865,209.679359 322.452242,213.302076 C327.165405,216.924793 332.51456,219.134495 338,220 C335.762667,214.925322 332.253349,210.320641 327.547758,206.697924 C322.834595,203.075963 317.48544,200.865505 312,200" id="Fill-12" fill="#21364F"></path>
                    <path d="M330.773699,162 C332.313814,167.392575 332.453824,173.207508 330.905474,179.003433 C329.357123,184.798978 326.30572,189.886285 322.224828,194 C320.688831,188.607425 320.544703,182.792872 322.093053,176.996947 C323.641404,171.201402 326.692807,166.114096 330.773699,162" id="Fill-13" fill="#21364F"></path>
                    <path d="M283,169.895739 C287.022528,173.917649 292.061234,176.995397 297.855362,178.663966 C303.653325,180.33175 309.520312,180.391005 315,179.104261 C310.977472,175.081958 305.9426,172.003426 300.144638,170.336034 C294.346675,168.66825 288.479688,168.608995 283,169.895739" id="Fill-14" fill="#21364F"></path>
                    <path d="M273,153.229192 C277.034615,157.080604 282.184615,160.054475 287.903846,161.625782 C293.619231,163.195961 298.111538,164.73119 303.453846,163.622518 L303.507692,163.652584 L303.503846,163.611619 C303.669231,163.577044 303.834615,163.541341 304,163.504135 C303.815385,163.33013 303.630769,163.158004 303.446154,162.987757 C302.884615,157.718748 302.223077,151.14301 298.965385,146.315967 C295.707692,141.490427 291.226923,137.584896 286.246154,135 C286.719231,140.493374 289.630769,147.53513 291.888462,150.87956 C294.146154,154.222486 297.269231,154.998556 298.715385,156.468768 C296.923077,155.631815 294.092308,154.720825 290.196154,153.650863 C286.303846,152.580149 278.5,151.996123 273,153.229192" id="Fill-15" fill="#21364F"></path>
                    <path d="M319,74.9933459 C319.146342,75.3436915 369.326141,196.193304 357.730487,291.770841 L361.234986,292 C372.969279,195.23967 322.358157,73.3541209 322.211815,73 L319,74.9933459" id="Fill-16" fill="#21364F"></path>
                    <path d="M334,228 C334.671971,236.536373 337.113831,244.825873 341.457772,252.0708 C345.805386,259.315355 351.541004,264.654249 358,268 C357.331701,259.463627 354.889841,251.174127 350.542228,243.9292 C346.194614,236.684274 340.458996,231.345751 334,228" id="Fill-17" fill="#21364F"></path>
                    <path d="M380.998848,174 C381.051882,183.00056 379.275241,192.327619 375.471942,201.202216 C371.668643,210.076426 366.289475,217.444104 360.001152,223 C359.948118,213.99944 361.724759,204.673154 365.528058,195.797784 C369.331357,186.923187 374.710525,179.555896 380.998848,174" id="Fill-18" fill="#21364F"></path>
                    <path d="M324,147 C325.256858,155.720375 328.375727,164.028516 333.44583,171.091877 C338.519812,178.156392 344.939873,183.135124 352,186 C350.743142,177.280779 347.624273,168.971484 342.55417,161.908123 C337.484068,154.844761 331.064007,149.865645 324,147" id="Fill-19" fill="#21364F"></path>
                    <path d="M361.999002,94 C362.04824,103.000702 360.275681,112.326749 356.473012,121.201872 C352.670343,130.076995 347.288279,137.444789 341.000998,143 C340.95176,133.999298 342.724319,124.672865 346.526988,115.798128 C350.333444,106.922618 355.711721,99.5548248 361.999002,94" id="Fill-20" fill="#21364F"></path>
                    <path d="M297,95.0935618 C300.961538,102.393236 306.561538,108.50391 313.626923,112.635488 C320.692308,116.767452 328.376923,118.429505 336,117.906638 C332.038462,110.60735 326.434615,104.496677 319.373077,100.364326 C312.307692,96.2331343 304.623077,94.5699222 297,95.0935618" id="Fill-21" fill="#21364F"></path>
                    <path d="M291,64.4571598 C294.874741,71.6286876 300.463237,77.6984794 307.25061,81.6907551 C314.037983,85.6834102 319.269447,89.297059 326.473984,88.9385395 L326.537874,89 L326.549149,88.9347457 C326.770885,88.9229847 326.992621,88.9097062 327.214356,88.8945308 C327.041478,88.570156 326.861082,88.2472988 326.680687,87.9274766 C327.732993,79.4197523 329.093474,68.8098519 326.545391,60.2964368 C323.997307,51.7815042 319.577622,44.4096607 314.068049,39 C312.827831,47.8427219 314.192071,59.7819898 315.958441,65.6806786 C317.724812,71.5789881 321.460498,73.6295678 322.817221,76.3425549 C320.806565,74.5446461 317.488043,72.3552112 312.861655,69.6361539 C308.239026,66.9163379 298.452581,63.9434715 291,64.4571598" id="Fill-22" fill="#21364F"></path>
                    <path d="M477.541424,68 C477.503382,68.4369525 464.926545,219.406494 401,302.291273 L404.560774,305 C469.282407,221.093017 481.961958,68.8266157 482,68.3858801 L477.541424,68" id="Fill-23" fill="#21364F"></path>
                    <path d="M410.258723,223 C406.259319,231.826471 404.372735,241.740439 405.185653,252.06464 C405.998571,262.388462 409.411294,271.893337 414.741277,280 C418.740681,271.173529 420.627265,261.258801 419.814347,250.935739 C419.005263,240.611538 415.588706,231.106663 410.258723,223" id="Fill-24" fill="#21364F"></path>
                    <path d="M488,207 C483.234452,215.574886 476.315355,223.113345 467.443038,228.727615 C458.566868,234.343041 448.793065,237.36605 439,238 C443.765548,229.425499 450.680793,221.886655 459.556962,216.272385 C468.433132,210.657344 478.206935,207.63395 488,207" id="Fill-25" fill="#21364F"></path>
                    <path d="M443.662415,141 C440.288952,150.002278 439.118094,159.93131 440.686967,170.074441 C442.259704,180.216819 446.386689,189.367348 452.337585,197 C455.711048,187.997722 456.881906,178.06869 455.313033,167.925183 C453.740296,157.782804 449.609447,148.632652 443.662415,141" id="Fill-26" fill="#21364F"></path>
                    <path d="M514,117 C509.23793,125.574779 502.318289,133.112374 493.441422,138.727345 C484.568407,144.341546 474.789983,147.365673 465,148 C469.765922,139.425221 476.681711,131.886856 485.558578,126.272655 C494.431593,120.657299 504.210017,117.634327 514,117" id="Fill-27" fill="#21364F"></path>
                    <path d="M444,72 C444.300799,81.6152868 446.879602,91.2913891 451.949168,100.165934 C457.022403,109.040857 463.984803,116.058449 472,121 C471.699201,111.384713 469.120398,101.708989 464.050832,92.8340657 C458.977597,83.9591428 452.015197,76.9404178 444,72" id="Fill-28" fill="#21364F"></path>
                    <path d="M452,36.3320288 C452.300251,45.9717207 454.954908,55.8212347 459.934678,64.5727812 C464.914448,73.3235703 468.473519,80.5775786 476.140901,85.5008206 L476.173855,85.6064891 L476.217794,85.5500568 C476.455798,85.7019316 476.693802,85.8515339 476.931806,86 C476.917159,85.5633127 476.898851,85.1270042 476.876882,84.6903169 C482.38026,77.3772251 489.293353,68.2927661 491.058242,58.3432647 C492.826793,48.3926272 492.057858,38.1624795 489.143227,29 C483.273689,36.4929933 478.498968,48.8319657 477.275996,55.7254135 C476.053023,62.6188613 478.872451,67.2970585 478.86879,70.8621386 C477.715387,67.6864032 475.40492,63.1824265 472.010621,57.2214367 C468.619983,51.2604469 460.000587,41.28557 452,36.3320288" id="Fill-29" fill="#21364F"></path>
                    <path d="M518,225.416811 C517.764378,225.508986 435.885736,256.998286 400.078794,306 L398,304.458657 C434.251583,254.851114 516.829491,223.092175 517.068913,223 L518,225.416811" id="Fill-30" fill="#21364F"></path>
                    <path d="M443,286.532674 C438.785605,290.27126 433.640123,292.992523 427.846272,294.248823 C422.048651,295.505124 416.292496,295.146068 411,293.467326 C415.214395,289.729134 420.359877,287.007871 426.157498,285.751177 C431.951349,284.494876 437.707504,284.853932 443,286.532674" id="Fill-31" fill="#21364F"></path>
                    <path d="M441.175286,241 C437.169981,245.002162 434.087486,250.026094 432.393083,255.822023 C430.702558,261.617953 430.597869,267.495347 431.823113,273 C435.828417,268.997838 438.910912,263.973521 440.605315,258.177592 C442.295841,252.381663 442.404407,246.504269 441.175286,241" id="Fill-32" fill="#21364F"></path>
                    <path d="M482,256.300876 C477.594554,259.626222 472.340044,261.894392 466.54556,262.690726 C460.747352,263.487443 455.101827,262.717194 450,260.699124 C454.40917,257.374546 459.66368,255.105608 465.458164,254.309274 C471.256371,253.512557 476.901897,254.282806 482,256.300876" id="Fill-33" fill="#21364F"></path>
                    <path d="M486.174038,213 C482.168828,217.002258 479.090282,222.025542 477.395919,227.821611 C475.701556,233.617679 475.59687,239.496367 476.825962,245 C480.831172,240.998511 483.909718,235.974073 485.604081,230.178389 C487.298444,224.382321 487.40313,218.503633 486.174038,213" id="Fill-34" fill="#21364F"></path>
                    <path d="M522,244.858694 C516.587311,246.335981 510.759433,246.427599 504.965837,244.848921 C499.168432,243.270651 494.090942,240.208985 490,236.141151 C495.416498,234.663864 501.240567,234.572653 507.037972,236.150924 C512.831568,237.729195 517.909058,240.79086 522,244.858694" id="Fill-35" fill="#21364F"></path>
                    <path d="M538,235.970025 C532.552947,237.31498 526.588404,237.374278 520.853857,235.961501 C515.11931,234.547612 510.458074,233.694832 506.413991,230.174749 L506.348826,230.172896 L506.371826,230.139541 C506.249161,230.03021 506.126497,229.920879 506,229.809325 C506.249161,229.749286 506.49449,229.690729 506.743651,229.635507 C509.913752,225.40496 513.839003,220.108529 519.11356,217.556488 C524.384284,215.004817 530.241495,213.827009 535.861045,214.020469 C532.652611,218.484503 526.546239,223.094929 522.893148,224.862382 C519.240057,226.629836 516.146622,225.786691 514.15333,226.34817 C516.123622,226.494933 519.033062,227.081613 522.939147,228.044836 C526.849066,229.007689 533.879253,232.267972 538,235.970025" id="Fill-36" fill="#21364F"></path>
                    <path d="M538,144.298627 C537.700421,144.532248 434.212961,224.571131 396.098177,313 L393,311.482783 C431.585009,221.959781 535.959829,141.235508 536.263201,141 L538,144.298627" id="Fill-37" fill="#21364F"></path>
                    <path d="M448,269.047737 C443.023517,276.220088 436.588278,282.266389 428.982996,286.414836 C421.373915,290.563283 413.502713,292.321699 406,291.952002 C410.976483,284.779651 417.411722,278.734104 425.017004,274.585658 C432.622287,270.437211 440.497287,268.679171 448,269.047737" id="Fill-38" fill="#21364F"></path>
                    <path d="M435.897784,201 C431.469677,208.748353 428.453595,217.705893 427.403049,227.305405 C426.352504,236.904531 427.391753,246.00349 430.099073,254 C434.530945,246.253188 437.547027,237.295263 438.597573,227.695751 C439.648118,218.09624 438.605103,208.99651 435.897784,201" id="Fill-39" fill="#21364F"></path>
                    <path d="M496,203.347106 C490.629273,210.071137 483.883579,215.551248 476.093366,219.048327 C468.303153,222.544659 460.402791,223.641203 453,222.652485 C458.370727,215.929573 465.116421,210.448342 472.906634,206.95201 C480.696847,203.455678 488.597209,202.359134 496,203.347106" id="Fill-40" fill="#21364F"></path>
                    <path d="M491.897784,139 C487.469677,146.747855 484.453595,155.705265 483.403049,165.304637 C482.352504,174.904009 483.391753,184.003606 486.099073,192 C490.530945,184.252145 493.547027,175.294735 494.597573,165.695363 C495.648118,156.095991 494.605103,146.997165 491.897784,139" id="Fill-41" fill="#21364F"></path>
                    <path d="M548,172.414549 C540.952454,176.583446 533.084356,178.968858 524.932515,178.999697 C516.784509,179.030537 509.322853,176.703831 503,172.585466 C510.043712,168.416569 517.915644,166.030785 526.06365,166.000317 C534.215491,165.968735 541.677147,168.29544 548,172.414549" id="Fill-42" fill="#21364F"></path>
                    <path d="M569,150.31603 C562.010981,154.525555 554.067013,156.934589 546.115435,156.965354 C538.163856,156.996494 531.764548,157.479351 525.627756,153.575598 L525.540251,153.597734 L525.566883,153.536579 C525.376654,153.415021 525.186425,153.292712 525,153.168902 C525.31578,152.978311 525.635365,152.791096 525.95495,152.608008 C529.295374,144.796374 533.423346,135.03005 539.929183,129.011404 C546.431215,122.992008 554.002335,118.883031 561.543018,117 C558.194985,125.191691 551.015737,134.736284 546.507307,138.906415 C542.002681,143.076922 537.695893,142.966994 535.150627,144.614787 C537.813835,144.077528 541.820061,143.859548 547.237786,143.839289 C552.655512,143.817903 562.726243,146.156779 569,150.31603" id="Fill-43" fill="#21364F"></path>
                    <path d="M245,183.879619 C245.183942,184.275786 309.209406,321.037449 295.726536,424.422178 L300.10594,425 C313.753647,320.331223 249.178978,182.400698 248.99541,182 L245,183.879619" id="Fill-44" fill="#21364F"></path>
                    <path d="M265,350 C265.973227,359.796471 269.276186,369.492386 275.070456,378.186609 C280.868483,386.876964 288.466416,393.536862 297,398 C296.026773,388.199662 292.723814,378.503747 286.929544,369.809524 C281.135275,361.119168 273.533584,354.45927 265,350" id="Fill-45" fill="#21364F"></path>
                    <path d="M322.991747,299 C323.153879,308.549887 320.930347,318.276069 316.043208,327.334584 C311.156068,336.389347 304.188228,343.699925 296.008253,349 C295.846121,339.450113 298.069653,329.723931 302.956792,320.665416 C307.843932,311.610653 314.811772,304.300075 322.991747,299" id="Fill-46" fill="#21364F"></path>
                    <path d="M252,264 C253.73844,273.593876 257.901236,282.914679 264.602706,291.064405 C271.304176,299.215279 279.744087,305.225172 289,309 C287.265502,299.407654 283.098764,290.087999 276.397294,281.937124 C269.695824,273.78625 261.255913,267.774828 252,264" id="Fill-47" fill="#21364F"></path>
                    <path d="M299.991747,209 C300.153879,218.551835 297.930346,228.277714 293.043204,237.333296 C288.156063,246.389628 281.188219,253.69876 273.00824,259 C272.846108,249.44854 275.073502,239.723036 279.956783,230.666704 C284.847785,221.610372 291.815629,214.30124 299.991747,209" id="Fill-48" fill="#21364F"></path>
                    <path d="M217,204 C222.028855,212.166368 229.097537,219.214593 237.971832,224.285872 C246.847625,229.357152 256.474322,231.848624 266,232 C260.971519,223.834387 253.90396,216.78654 245.028916,211.714505 C236.153872,206.643226 226.527175,204.151753 217,204" id="Fill-49" fill="#21364F"></path>
                    <path d="M207,169.683681 C212.197089,177.91686 219.652152,185.106525 228.669744,190.134571 C237.688108,195.162617 244.643332,199.625142 254.165401,199.924648 L254.250447,200 L254.262045,199.928073 C254.55584,199.936826 254.849636,199.943296 255.143431,199.947862 C254.911488,199.575668 254.671812,199.205377 254.424405,198.837749 C255.727157,189.613956 257.40875,178.115896 253.94892,168.539317 C250.485225,158.962358 244.563311,150.458216 237.221514,144 C235.677155,153.572393 237.61118,166.789091 240.010253,173.42351 C242.409712,180.058689 247.373311,182.66519 249.190205,185.76833 C246.515119,183.604428 242.103933,180.886802 235.960126,177.461702 C229.817479,174.036602 216.844858,169.836669 207,169.683681" id="Fill-50" fill="#21364F"></path>
                    <path d="M360,299.615783 C359.839525,299.813525 304.276981,367.89013 297.579062,428 L295,427.714795 C301.781977,366.859588 357.822126,298.198503 357.982601,298 L360,299.615783" id="Fill-51" fill="#21364F"></path>
                    <path d="M324,391 C322.171252,396.265511 319.066461,401.14974 314.719011,405.134142 C310.371561,409.118544 305.297063,411.730329 300,413 C301.828748,407.730676 304.92983,402.846447 309.27728,398.862045 C313.62473,394.877643 318.699227,392.265858 324,391" id="Fill-52" fill="#21364F"></path>
                    <path d="M300.226351,353 C298.686173,358.390994 298.546157,364.207794 300.094571,370.001782 C301.638866,375.799572 304.694512,380.88642 308.771453,385 C310.31163,379.609006 310.455764,373.792206 308.907351,367.998218 C307.358937,362.200428 304.307409,357.11358 300.226351,353" id="Fill-53" fill="#21364F"></path>
                    <path d="M344,344 C341.762993,349.074683 338.257971,353.680469 333.545494,357.303082 C328.836803,360.925695 323.484641,363.134052 318,364 C320.240792,358.925317 323.745815,354.319531 328.454506,350.696918 C333.166982,347.074305 338.515359,344.865948 344,344" id="Fill-54" fill="#21364F"></path>
                    <path d="M324.226351,306 C322.686173,311.394796 322.546157,317.207794 324.094571,323.005584 C325.638866,328.799572 328.694512,333.88642 332.771453,338 C334.31163,332.609006 334.455764,326.792206 332.907351,320.998218 C331.358937,315.200428 328.303291,310.11358 324.226351,306" id="Fill-55" fill="#21364F"></path>
                    <path d="M373,314.894459 C368.977954,318.916446 363.939851,321.996701 358.146417,323.664354 C352.349149,325.332008 346.482866,325.390866 341,324.10383 C345.025881,320.081842 350.060149,317.005512 355.857417,315.337858 C361.650851,313.670205 367.517134,313.607422 373,314.894459" id="Fill-56" fill="#21364F"></path>
                    <path d="M383,298.229266 C378.961538,302.079191 373.815385,305.055704 368.096154,306.626642 C362.380769,308.19758 357.888462,309.730935 352.546154,308.622259 L352.488462,308.652325 L352.492308,308.610984 C352.326923,308.57716 352.165385,308.543336 352,308.505754 C352.180769,308.329117 352.369231,308.156239 352.553846,307.987119 C353.111538,302.718089 353.773077,296.143076 357.034615,291.316013 C360.292308,286.490453 364.769231,282.585282 369.753846,280 C369.280769,285.493396 366.369231,292.535181 364.111538,295.879248 C361.853846,299.22294 358.726923,299.997135 357.284615,301.470358 C359.073077,300.632274 361.907692,299.720529 365.803846,298.650939 C369.696154,297.580221 377.5,296.996193 383,298.229266" id="Fill-57" fill="#21364F"></path>
                    <path d="M336,218.993353 C335.857497,219.3437 285.673305,340.194484 297.269974,435.769707 L293.765169,436 C282.029848,339.239336 332.645401,217.354122 332.791755,217 L336,218.993353" id="Fill-58" fill="#21364F"></path>
                    <path d="M320,373 C319.331599,381.533037 316.889365,389.825132 312.541086,397.068205 C308.19648,404.314985 302.459985,409.652766 296,413 C296.668401,404.463256 299.110635,396.171161 303.458914,388.928088 C307.807192,381.681308 313.540015,376.343527 320,373" id="Fill-59" fill="#21364F"></path>
                    <path d="M275.001152,319 C274.948118,328.002523 276.724772,337.329601 280.528099,346.204621 C284.331426,355.075777 289.710633,362.443936 295.999002,368 C296.048249,359.00134 294.275383,349.674263 290.472056,340.799243 C286.668729,331.924223 281.289522,324.556064 275.001152,319" id="Fill-60" fill="#21364F"></path>
                    <path d="M330,292 C328.743142,300.720162 325.624273,309.03039 320.550291,316.090814 C315.480188,323.15893 309.060127,328.135067 302,331 C303.252979,322.282145 306.375727,313.971918 311.44583,306.907648 C316.515932,299.843378 322.935993,294.866086 330,292" id="Fill-61" fill="#21364F"></path>
                    <path d="M294.000998,238 C293.95176,247.000773 295.724319,256.326893 299.526988,265.2017 C303.329658,274.07728 308.707935,281.445131 314.999004,287 C315.048242,277.999614 313.271896,268.673107 309.469226,259.7983 C305.666557,250.92272 300.28828,243.554869 294.000998,238" id="Fill-62" fill="#21364F"></path>
                    <path d="M358,239.093561 C354.038462,246.393152 348.438462,252.503754 341.373077,256.635285 C334.307692,260.767202 326.623077,262.429236 319,261.906761 C322.961538,254.60717 328.565385,248.496567 335.626923,244.364265 C342.692308,240.23312 350.376923,238.569927 358,239.093561" id="Fill-63" fill="#21364F"></path>
                    <path d="M365,208.45716 C361.128624,215.628308 355.539561,221.698479 348.751498,225.690755 C341.963435,229.68341 336.73144,233.297059 329.522412,232.93816 L329.462274,233 L329.450999,232.934746 C329.22924,232.922985 329.007482,232.909706 328.785723,232.894151 C328.95862,232.570156 329.139033,232.247299 329.319447,231.927477 C328.267034,223.419752 326.906415,212.809852 329.454757,204.296057 C332.0031,195.781504 336.423233,188.409661 341.929608,183 C343.17371,191.842722 341.809332,203.78199 340.042782,209.680679 C338.276232,215.578988 334.536408,217.629568 333.183305,220.342555 C335.194166,218.544646 338.513025,216.355211 343.136124,213.636154 C347.762982,210.916338 357.550421,207.943472 365,208.45716" id="Fill-64" fill="#21364F"></path>
                    <path d="M48,253.311007 C48.4250012,253.635545 196.054223,365.318806 239.875299,485 L245,483.129271 C200.636184,361.967399 51.738415,249.327567 51.3088562,249 L48,253.311007" id="Fill-65" fill="#21364F"></path>
                    <path d="M164,422.004263 C170.537076,431.63143 179.579254,439.854094 190.809517,445.650458 C202.038633,451.443107 214.12001,454.122068 226,453.995737 C219.462924,444.36857 210.420746,436.145906 199.190866,430.349542 C187.961367,424.556893 175.880372,421.877932 164,422.004263" id="Fill-66" fill="#21364F"></path>
                    <path d="M196.077773,332 C201.79242,342.408397 205.027993,354.339695 204.999818,367.019084 C204.971642,379.698473 201.682805,391.614504 195.921841,402 C190.207966,391.587786 186.972007,379.656489 187.000182,366.980916 C187.028744,354.301527 190.317195,342.381679 196.077773,332" id="Fill-67" fill="#21364F"></path>
                    <path d="M102,335.243244 C109.209822,344.368701 118.807399,351.918886 130.399287,356.904158 C141.990794,361.885723 154.198224,363.709332 166,362.756756 C158.790178,353.631299 149.193365,346.081114 137.601858,341.095842 C126.00997,336.114277 113.801776,334.290668 102,335.243244" id="Fill-68" fill="#21364F"></path>
                    <path d="M122.077971,247 C127.792214,257.410094 131.027995,269.341969 130.999817,282.020802 C130.97164,294.699254 127.682978,306.618151 121.922029,317 C116.207786,306.591433 112.972005,294.660703 113.000183,281.98187 C113.028746,269.302655 116.317408,257.384903 122.077971,247" id="Fill-69" fill="#21364F"></path>
                    <path d="M28,288.782637 C38.2013716,294.853361 50.0136066,298.514164 62.6919959,298.95572 C75.370767,299.393817 87.406033,296.564246 98,291.216384 C87.7986284,285.146045 75.9852477,281.484857 63.3072403,281.044839 C50.6288511,280.603667 38.5924394,283.435159 28,288.782637" id="Fill-70" fill="#21364F"></path>
                    <path d="M0,257.548773 C9.97800017,263.564174 21.7377861,267.199922 33.9338667,267.629158 C46.1292002,268.059156 55.8580492,269.02351 65.9656678,264.0593 L66.0956597,264.093197 L66.0672706,264.009787 C66.3795501,263.855536 66.6903353,263.700143 67,263.541703 C66.5480166,263.269003 66.093792,263.002015 65.635832,262.739218 C61.889973,252.045638 57.2894545,238.677997 48.3771639,230.246382 C39.4659939,221.814386 28.5802916,215.907151 17.3442087,213 C21.0261924,224.206606 30.3549801,237.423805 36.5295961,243.26553 C42.7045856,249.107256 49.3278232,249.170099 52.9418225,251.515472 C48.9520419,250.660809 42.843169,250.171396 34.5356396,249.879271 C26.2281103,249.586766 10.3619993,252.249021 0,257.548773" id="Fill-71" fill="#21364F"></path>
                    <path d="M236.936779,314.614421 C236.878221,314.917839 216.173079,419.350448 242,487.869769 L239.157555,489 C213.011696,419.638694 233.896195,314.307211 233.955121,314 L236.936779,314.614421" id="Fill-72" fill="#21364F"></path>
                    <path d="M250.604544,431 C251.535524,437.632287 250.847738,444.57915 248.275193,451.278846 C245.698847,457.982287 241.549334,463.637146 236.395883,468 C235.463382,461.367713 236.153828,454.42085 238.727133,447.721154 C241.300439,441.017713 245.451852,435.359109 250.604544,431" id="Fill-73" fill="#21364F"></path>
                    <path d="M203,406 C204.527507,412.378975 207.715869,418.498107 212.606055,423.753534 C217.495856,429.0053 223.506549,432.767542 230,435 C228.47172,428.621025 225.284131,422.501893 220.393172,417.250126 C215.502985,411.998359 209.492678,408.236118 203,406" id="Fill-74" fill="#21364F"></path>
                    <path d="M244.909893,370 C245.354632,376.886594 244.162851,383.977778 241.116724,390.679082 C238.070597,397.384246 233.531901,402.896609 228.090089,407 C227.645349,400.117267 228.837509,393.022222 231.883636,386.324778 C234.930521,379.619614 239.469216,374.107251 244.909893,370" id="Fill-75" fill="#21364F"></path>
                    <path d="M203,340 C204.528236,346.38183 207.716507,352.500189 212.606553,357.751293 C217.4966,363.002397 223.506735,366.764164 230,369 C228.471764,362.62183 225.283493,356.50347 220.393447,351.252366 C215.5034,345.997603 209.493265,342.235836 203,340" id="Fill-76" fill="#21364F"></path>
                    <path d="M261,321 C258.904477,327.572534 255.218468,333.715667 249.968354,338.787234 C244.715225,343.854932 238.51798,347.255319 232,349 C234.0959,342.431335 237.778894,336.288201 243.030892,331.216634 C248.283644,326.145068 254.479758,322.748549 261,321" id="Fill-77" fill="#21364F"></path>
                    <path d="M261,298.225691 C258.871467,304.520282 255.04317,310.482136 249.794575,315.258288 C244.549042,320.038146 240.60092,324.110289 234.219914,325.829555 L234.175889,325.892546 L234.155599,325.844377 C233.958824,325.899956 233.761667,325.951831 233.563744,326 C233.660217,325.714691 233.759753,325.429381 233.862734,325.147777 C231.440188,319.234093 228.377167,311.867924 229.110669,304.957509 C229.844936,298.048947 232.4187,291.459042 236.293703,286 C238.939822,292.107473 239.848659,301.189203 239.339496,305.976471 C238.831098,310.76374 235.916615,313.28706 235.20838,315.636231 C236.652797,313.772457 239.175645,311.263957 242.750508,308.01069 C246.324606,304.757422 254.380875,299.899753 261,298.225691" id="Fill-78" fill="#21364F"></path>
                    <path d="M167.541098,239.381032 C167.586581,239.840845 182.599758,398.640132 249,495.810773 L245.406465,498 C178.184876,399.624906 163.045483,239.463222 163,239 L167.541098,239.381032" id="Fill-79" fill="#21364F"></path>
                    <path d="M236.348306,413 C240.501062,422.626947 242.544242,432.997001 241.875002,443.318754 C241.205763,453.644221 237.903326,462.691546 232.652777,470 C228.500021,460.373053 226.455709,450.002999 227.124949,439.681246 C227.794188,429.355779 231.097757,420.304739 236.348306,413" id="Fill-80" fill="#21364F"></path>
                    <path d="M158,381 C162.942026,390.54524 170.046546,399.409757 179.102297,406.655668 C188.157667,413.897797 198.08854,418.662853 208,421 C203.057974,411.45476 195.954596,402.590243 186.898084,395.344332 C177.842333,388.098421 167.911841,383.337147 158,381" id="Fill-81" fill="#21364F"></path>
                    <path d="M201.985116,321 C205.536461,330.985623 206.87075,341.559305 205.427024,351.886382 C203.98368,362.209665 199.933364,371.053315 194.014583,378 C190.463238,368.014377 189.128949,357.440695 190.57344,347.113618 C192.017167,336.790335 196.066335,327.946685 201.985116,321" id="Fill-82" fill="#21364F"></path>
                    <path d="M130,283 C134.940997,292.546194 142.045679,301.410165 151.102398,308.655939 C160.158356,315.897931 170.089075,320.662898 180,323 C175.059003,313.454941 167.954321,304.590591 158.898363,297.345195 C149.842786,290.100934 139.911686,285.336724 130,283" id="Fill-83" fill="#21364F"></path>
                    <path d="M201,250 C200.824867,259.756584 198.320868,269.169064 193.249718,277.319329 C188.177834,285.469967 181.143138,291.389316 173,295 C173.174399,285.243416 175.679132,275.830936 180.750282,267.680299 C185.821431,259.530033 192.856862,253.610684 201,250" id="Fill-84" fill="#21364F"></path>
                    <path d="M192,212.525119 C191.815517,222.575517 189.094974,232.410935 183.85188,240.668303 C178.609943,248.92452 174.877447,255.873232 166.676838,259.62254 L166.642103,259.726389 L166.594631,259.659711 C166.34145,259.77544 166.085953,259.888486 165.830841,260 C165.838946,259.544749 165.85284,259.09103 165.87098,258.637695 C159.825501,249.958416 152.233145,239.161912 150.179905,228.406027 C148.127437,217.651293 148.803231,207.067469 151.81362,198 C158.259327,206.936029 163.589645,220.748764 165.011861,228.200628 C166.434077,235.652492 163.463055,240.037159 163.516701,243.77497 C164.714682,240.658339 167.142676,236.36296 170.713847,230.737849 C174.285018,225.113887 183.440074,216.245303 192,212.525119" id="Fill-85" fill="#21364F"></path>
                    <path d="M626,179.879616 C625.816429,180.275782 561.791451,317.033834 575.274535,420.422179 L570.895061,421 C557.243392,316.331385 621.819083,178.40032 622.0064,178 L626,179.879616" id="Fill-86" fill="#21364F"></path>
                    <path d="M606,347 C605.026773,356.800338 601.723814,366.496253 595.929544,375.186609 C590.135275,383.880832 582.533584,390.54073 574,395 C574.973227,385.203529 578.276186,375.507614 584.070456,366.813391 C589.868483,358.119168 597.466416,351.463138 606,347" id="Fill-87" fill="#21364F"></path>
                    <path d="M548.008253,295 C547.84612,304.550191 550.069653,314.2763 554.960652,323.334746 C559.847792,332.389442 566.815632,339.699965 574.991747,345 C575.153879,335.446433 572.930347,325.720325 568.043208,316.665629 C563.156068,307.610933 556.188228,300.30041 548.008253,295" id="Fill-88" fill="#21364F"></path>
                    <path d="M619,260 C617.265502,269.593794 613.098764,278.914518 606.397294,287.064175 C599.695824,295.21498 591.255913,301.225204 582,305 C583.734498,295.407353 587.901236,286.087777 594.602706,277.936972 C601.304176,269.786167 609.744087,263.774796 619,260" id="Fill-89" fill="#21364F"></path>
                    <path d="M570.008253,204 C569.846121,213.55146 572.069653,223.277714 576.956792,232.333296 C581.843932,241.389628 588.811772,248.69876 596.991747,254 C597.153879,244.448165 594.930347,234.723036 590.043208,225.666704 C585.156068,216.610372 578.188228,209.30124 570.008253,204" id="Fill-90" fill="#21364F"></path>
                    <path d="M653,199 C647.971673,207.166368 640.900588,214.214593 632.029931,219.285872 C623.15179,224.357152 613.525387,226.848624 604,227 C609.028327,218.834765 616.095671,211.786162 624.970069,206.714128 C633.844468,201.642848 643.470871,199.151753 653,199" id="Fill-91" fill="#21364F"></path>
                    <path d="M664,165.683681 C658.804365,173.916479 651.347236,181.106525 642.33219,186.134571 C633.313278,191.162617 626.354838,195.625142 616.833372,195.924648 L616.748324,196 L616.736727,195.928073 C616.442926,195.937207 616.149125,195.943296 615.855324,195.947862 C616.091138,195.575668 616.330818,195.205377 616.574363,194.837749 C615.275454,185.613956 613.589965,174.116277 617.049857,164.539317 C620.513613,154.962738 626.436019,146.458216 633.777174,140 C635.323494,149.572393 633.386728,162.789091 630.989932,169.42351 C628.58927,176.058689 623.625583,178.664809 621.808657,181.76833 C624.48379,179.604428 628.894668,176.886802 635.041291,173.461702 C641.184047,170.036602 654.153807,165.836288 664,165.683681" id="Fill-92" fill="#21364F"></path>
                    <path d="M511,295.615778 C511.160475,295.81352 566.723019,363.890306 573.420938,424 L576,423.710993 C569.218023,362.859767 513.177874,294.198502 513.017399,294 L511,295.615778" id="Fill-93" fill="#21364F"></path>
                    <path d="M547,387 C548.832174,392.266424 551.932777,397.151499 556.279555,401.136592 C560.626333,405.121685 565.700046,407.733923 571,409 C569.167826,403.733576 566.067223,398.848501 561.720445,394.863408 C557.373667,390.878315 552.299954,388.266077 547,387" id="Fill-94" fill="#21364F"></path>
                    <path d="M570.773128,349 C572.313224,354.390994 572.453232,360.207794 570.909019,366.001782 C569.360688,371.799572 566.305205,376.88642 562.228482,381 C560.688387,375.609006 560.54426,369.792206 562.092591,363.994416 C563.640922,358.200428 566.696406,353.11358 570.773128,349" id="Fill-95" fill="#21364F"></path>
                    <path d="M527,340 C529.237007,345.074683 532.745815,349.680469 537.454506,353.303082 C542.163197,356.925695 547.515359,359.134052 553,360 C550.759208,354.925317 547.254185,350.319531 542.545494,346.696918 C537.836803,343.074305 532.484641,340.865948 527,340" id="Fill-96" fill="#21364F"></path>
                    <path d="M546.771518,303 C548.311613,308.390994 548.45574,314.207794 546.907409,320.005584 C545.359078,325.799572 542.303594,330.88642 538.226872,335 C536.686776,329.609006 536.546768,323.792206 538.090981,317.998218 C539.639312,312.200428 542.694795,307.11358 546.771518,303" id="Fill-97" fill="#21364F"></path>
                    <path d="M498,310.894803 C502.022046,314.916654 507.060149,317.996803 512.857417,319.6644 C518.650851,321.331996 524.517134,321.390853 530,320.10386 C525.977954,316.08201 520.939851,313.00186 515.142583,311.334264 C509.349149,309.670591 503.482866,309.607811 498,310.894803" id="Fill-98" fill="#21364F"></path>
                    <path d="M489,294.229169 C493.038462,298.080122 498.184615,301.052048 503.903846,302.626703 C509.619231,304.1976 514.111538,305.730916 519.453846,304.622269 L519.511538,304.652334 L519.507692,304.610994 C519.673077,304.577171 519.838462,304.53959 520,304.502009 C519.819231,304.329135 519.634615,304.156261 519.446154,303.987145 C518.888462,298.718628 518.226923,292.143033 514.965385,287.316095 C511.707692,282.490285 507.230769,278.585215 502.246154,276 C502.719231,281.49363 505.630769,288.535232 507.888462,291.879213 C510.146154,295.222442 513.273077,295.998495 514.715385,297.468299 C512.926923,296.631364 510.092308,295.72077 506.2,294.650831 C502.303846,293.580141 494.5,292.996128 489,294.229169" id="Fill-99" fill="#21364F"></path>
                    <path d="M533,214.993349 C533.1425,215.343696 583.325588,336.194649 571.733025,431.769708 L575.233902,432 C586.972816,335.239503 536.354526,213.354122 536.212026,213 L533,214.993349" id="Fill-100" fill="#21364F"></path>
                    <path d="M551,368 C551.668401,376.535953 554.110635,384.827279 558.458914,392.069681 C562.80352,399.315789 568.540015,404.653076 575,408 C574.331599,399.464047 571.889365,391.172721 567.541086,383.930319 C563.19648,376.684211 557.459985,371.346924 551,368" id="Fill-101" fill="#21364F"></path>
                    <path d="M594.999002,315 C595.04824,324.002523 593.275681,333.329601 589.469225,342.200757 C585.670343,351.075777 580.288279,358.443936 574.000998,364 C573.95176,354.997477 575.724319,345.674263 579.526988,336.799243 C583.329657,327.924223 588.711721,320.556064 594.999002,315" id="Fill-102" fill="#21364F"></path>
                    <path d="M541,288 C542.252979,296.720461 545.375727,305.030606 550.44583,312.090961 C555.515932,319.159007 561.935993,324.135096 569,327 C567.743142,318.282231 564.624273,309.972086 559.550291,302.907885 C554.480188,295.844839 548.060127,290.866058 541,288" id="Fill-103" fill="#21364F"></path>
                    <path d="M578.998848,234 C579.051882,243.000773 577.275241,252.326893 573.471942,261.2017 C569.668643,270.07728 564.289475,277.445131 558.001152,283 C557.948118,273.999614 559.724759,264.67272 563.528058,255.7983 C567.331357,246.92272 572.710525,239.554869 578.998848,234" id="Fill-104" fill="#21364F"></path>
                    <path d="M513,236.093576 C516.961538,243.393246 522.565385,249.503916 529.626923,253.635105 C536.692308,257.767453 544.376923,259.429506 552,258.906639 C548.038462,251.607355 542.438462,245.496685 535.373077,241.364337 C528.307692,237.232762 520.623077,235.569937 513,236.093576" id="Fill-105" fill="#21364F"></path>
                    <path d="M506,204.45716 C509.871209,211.628688 515.460033,217.698479 522.247804,221.690755 C529.035575,225.68341 534.267345,229.29668 541.476063,228.93816 L541.539957,229 L541.547474,228.934746 C541.769223,228.922985 541.99473,228.909706 542.216479,228.894151 C542.039832,228.569777 541.863184,228.247299 541.67902,227.927477 C542.731388,219.419752 544.095707,208.809852 541.543716,200.296057 C538.995483,191.781504 534.575539,184.409281 529.069401,179 C527.829111,187.842722 529.19343,199.78161 530.959904,205.680299 C532.726379,211.578988 536.462284,213.629568 537.815328,216.342176 C535.804554,214.544646 532.485837,212.355211 527.862937,209.636154 C523.240036,206.916338 513.449259,203.943472 506,204.45716" id="Fill-106" fill="#21364F"></path>
                    <path d="M631.12734,481 L626,479.129274 C670.364784,357.967596 819.262739,245.327566 819.691916,245 L823,249.311 C822.574621,249.635537 674.949006,361.318998 631.12734,481 Z" id="Fill-107" fill="#21364F"></path>
                    <path d="M707,419.004263 C700.460788,428.631501 691.417686,436.854225 680.188465,442.650633 C668.959244,448.443325 656.880079,451.118589 645,450.995973 C651.535383,441.365019 660.578486,433.146011 671.807707,427.349604 C683.036927,421.556912 695.119921,418.877931 707,419.004263" id="Fill-108" fill="#21364F"></path>
                    <path d="M674.922814,328 C669.207226,338.411646 665.973153,350.342293 666,363.020991 C666.027183,375.699689 669.315286,387.61507 675.077186,398 C680.792774,387.588354 684.026847,375.657707 684,362.982825 C683.968958,350.304127 680.680855,338.38493 674.922814,328" id="Fill-109" fill="#21364F"></path>
                    <path d="M768,331.243244 C760.791366,340.368701 751.19003,347.918886 739.600501,352.904158 C728.007155,357.885723 715.799416,359.709332 704,358.756756 C711.208634,349.631299 720.806153,342.081114 732.399499,337.095842 C743.989029,332.114277 756.196768,330.290668 768,331.243244" id="Fill-110" fill="#21364F"></path>
                    <path d="M749.920894,244 C744.207956,254.410037 740.969338,266.342228 741.000219,279.020611 C741.027239,291.698993 744.316039,303.618207 750.075297,314 C755.792095,303.59149 759.026853,291.660443 759,278.981679 C758.968951,266.302533 755.680152,254.384846 749.920894,244" id="Fill-111" fill="#21364F"></path>
                    <path d="M842,284.782628 C831.799225,290.852956 819.986797,294.514137 807.307436,294.955308 C794.628076,295.39571 782.59414,292.564223 772,287.21637 C782.200775,281.146427 794.013203,277.485246 806.692564,277.044843 C819.371924,276.603673 831.40586,279.434776 842,284.782628" id="Fill-112" fill="#21364F"></path>
                    <path d="M871,254.54887 C861.022469,260.564284 849.263102,264.20004 837.066682,264.628896 C824.870261,265.059276 815.143008,266.023631 805.034735,261.05903 L804.903992,261.093308 L804.933876,261.009517 C804.620094,260.855647 804.310047,260.699873 804,260.541813 C804.451996,260.269493 804.907727,260.002124 805.363459,259.739326 C809.110169,249.045723 813.71231,235.678053 822.621488,227.24642 C831.5344,218.814405 842.419659,212.907158 853.656055,210 C849.972848,221.206631 840.645294,234.423858 834.470506,240.265596 C828.295718,246.107334 821.672669,246.170177 818.056702,248.515556 C822.049955,247.660891 828.157504,247.171477 836.465265,246.878971 C844.773026,246.586846 860.637712,249.249106 871,254.54887" id="Fill-113" fill="#21364F"></path>
                    <path d="M632.064108,310.614421 C632.123036,310.917839 652.828794,415.350448 627,483.865976 L629.843267,485 C655.988797,415.634902 635.102573,310.307211 635.043645,310 L632.064108,310.614421" id="Fill-114" fill="#21364F"></path>
                    <path d="M620.395362,427 C619.464406,433.632287 620.152173,440.57915 622.728453,447.278846 C625.300933,453.982287 629.450339,459.637146 634.602898,464 C635.537654,457.367713 634.846086,450.42085 632.273606,443.721154 C629.701127,437.017713 625.547921,431.359109 620.395362,427" id="Fill-115" fill="#21364F"></path>
                    <path d="M668,402 C666.473375,408.378975 663.284855,414.498107 658.395792,419.749874 C653.502863,425.0053 647.492986,428.767542 641,431 C642.53049,424.621025 645.715145,418.501893 650.608073,413.250126 C655.497137,407.998359 661.507014,404.236118 668,402" id="Fill-116" fill="#21364F"></path>
                    <path d="M626.089692,366 C625.646446,372.886594 626.836012,379.977778 629.881907,386.679082 C632.927803,393.380386 637.470127,398.896609 642.910308,403 C643.353554,396.117267 642.163988,389.022222 639.118093,382.320918 C636.068409,375.619614 631.529873,370.107251 626.089692,366" id="Fill-117" fill="#21364F"></path>
                    <path d="M668,336 C666.46951,342.38183 663.284855,348.49653 658.391927,353.751293 C653.502863,359.002397 647.492986,362.764164 641,365 C642.526625,358.62183 645.715145,352.50347 650.608073,347.252366 C655.497137,341.997603 661.507014,338.235836 668,336" id="Fill-118" fill="#21364F"></path>
                    <path d="M612,317 C614.099155,323.572534 617.781157,329.711799 623.034698,334.787234 C628.28447,339.854932 634.480182,343.255319 641,345 C638.904613,338.431335 635.218843,332.288201 629.969071,327.216634 C624.71553,322.145068 618.519818,318.748549 612,317" id="Fill-119" fill="#21364F"></path>
                    <path d="M610,294.225578 C612.128479,300.520481 615.956678,306.482279 621.205138,311.258388 C626.449771,316.038201 630.400472,320.110306 636.778252,321.829557 L636.82419,321.892547 L636.843331,321.844378 C637.042398,321.896252 637.237636,321.948126 637.436702,322 C637.340997,321.714693 637.241464,321.429387 637.138103,321.147785 C639.561353,315.23045 642.623912,307.868055 641.888898,300.957704 C641.153883,294.048836 638.581334,287.458992 634.707196,282 C632.061911,288.107416 631.150799,297.189062 631.65995,301.976657 C632.1691,306.763881 635.08236,309.287178 635.790577,311.636327 C634.347346,309.77257 631.824562,307.264094 628.249025,304.010856 C624.677315,300.757619 616.618956,295.898142 610,294.225578" id="Fill-120" fill="#21364F"></path>
                    <path d="M703.459321,236.381031 C703.413839,236.840844 688.400793,395.640277 622,492.810776 L625.593125,495 C692.816395,396.62505 707.954517,236.4636 708,236 L703.459321,236.381031" id="Fill-121" fill="#21364F"></path>
                    <path d="M634.654697,409 C630.501337,418.623232 628.456723,428.993286 629.124429,439.318754 C629.795908,449.640506 633.096716,458.691546 638.347829,466 C642.501189,456.373053 644.545804,446.002999 643.874325,435.681246 C643.206619,425.355779 639.902038,416.304739 634.654697,409" id="Fill-122" fill="#21364F"></path>
                    <path d="M713,377 C708.055572,386.54524 700.952954,395.409757 691.897686,402.651886 C682.842418,409.897797 672.911693,414.662853 663,417 C667.944428,407.450979 675.047046,398.590243 684.102314,391.344332 C693.157582,384.098421 703.088307,379.337147 713,377" id="Fill-123" fill="#21364F"></path>
                    <path d="M671.012805,318 C667.461797,327.985623 666.130169,338.559305 667.572766,348.886382 C669.015363,359.209665 673.067645,368.053315 678.983441,375 C682.538276,365.014377 683.869904,354.436901 682.427307,344.113618 C680.980883,333.790335 676.932428,324.942891 671.012805,318" id="Fill-124" fill="#21364F"></path>
                    <path d="M741,280 C736.059003,289.546103 728.952037,298.409235 719.896079,305.652293 C710.840122,312.897999 700.908641,317.66292 691,320 C695.940997,310.451249 703.044157,301.590765 712.100114,294.34506 C721.156072,287.100867 731.087552,282.33708 741,280" id="Fill-125" fill="#21364F"></path>
                    <path d="M670,247 C670.176239,256.756584 672.680304,266.169064 677.750852,274.319329 C682.8214,282.469967 689.856281,288.388944 698,292 C697.827432,282.243043 695.319696,272.830936 690.249148,264.680671 C685.1786,256.530033 678.143719,250.610684 670,247" id="Fill-126" fill="#21364F"></path>
                    <g id="Group-6" transform="translate(645.000000, 413.000000)">
                        <path d="M87.8609678,11.7602517 C87.8609678,11.7602517 99.6688782,24.6766485 94.9000649,44.837644 C90.1312516,64.9986395 91.0411911,76.3270543 91.0411911,76.3270543 L97.8520425,89.2404148 C97.8520425,89.2404148 101.257468,94.9031041 98.4211351,105.323667 C95.5817587,115.747266 106.820576,107.931844 106.820576,107.931844 C106.820576,107.931844 108.637412,94.3383533 102.167408,83.4623464 C95.6943599,72.5893758 101.71396,63.3013509 101.71396,63.3013509 C101.71396,63.3013509 110.113401,50.6126762 123.966393,57.2985967 C137.816341,63.9814809 137.70374,89.9205448 137.70374,89.9205448 C137.70374,89.9205448 139.176685,92.9780933 126.124075,113.819219 C126.124075,113.819219 125.442382,126.960301 135.774303,118.917157 C146.103181,110.874013 144.40199,132.05824 144.40199,132.05824 C144.40199,132.05824 146.672274,135.228131 125.554983,146.104138 C125.554983,146.104138 111.930237,160.150037 129.642102,161.734982 C147.353968,163.319928 139.404931,181.218884 139.404931,181.218884 L18.3799366,181.218884 C18.3799366,181.218884 -4.78243604,143.383618 0.896316725,123.447309 C0.896316725,123.447309 2.25666104,100.56883 19.9685266,106.231519 C19.9685266,106.231519 27.2358693,108.044187 35.8635564,126.167829 C35.8635564,126.167829 46.0828768,130.245572 42.6774511,121.409955 C39.2689821,112.574338 34.5001688,98.5284397 34.5001688,98.5284397 C34.5001688,98.5284397 34.9566602,73.8342565 46.5363249,68.8516972 C46.5363249,68.8516972 56.0739514,62.508878 42.9026535,36.682157 C29.7343988,10.855436 50.3951987,-3.87059235 66.9719223,0.887281129 C83.5486459,5.64515461 87.8609678,11.7602517 87.8609678,11.7602517" id="Fill-27" fill="#79A7AA"></path>
                        <path d="M68.1044345,24.9343456 C70.222105,28.9629944 78.6527726,44.9925201 72.7522287,54.4321973 C68.6923343,60.9369764 65.9159698,66.9890642 64.7217022,73.1596417 C63.5151225,79.3636393 63.9029517,85.6587829 66.1683666,92.6101769 C68.3783773,99.3883937 68.4122355,106.801594 68.4430155,113.828943 C68.4645616,118.143182 68.4830297,122.317664 68.9970572,126.164021 C70.7730686,139.504743 73.4170787,150.585046 76.5135561,159.772553 C79.6069555,168.938792 83.1528223,176.224388 86.7540933,182 L89.0472103,182 C85.2981949,176.184892 81.5799596,168.72308 78.3572837,159.174028 C75.2946644,150.095897 72.6845125,139.134083 70.9238911,125.917927 C70.4221756,122.183984 70.4067855,118.070265 70.3852395,113.819828 C70.3544594,106.643607 70.3175233,99.0754595 68.0151722,92.0238049 C65.8574877,85.3974979 65.4850485,79.4092123 66.630068,73.5181489 C67.7812435,67.5967035 70.4683457,61.7481749 74.4051197,55.4408786 C80.8843294,45.0715132 72.0473645,28.2763619 69.8311978,24.0563067 C69.591113,23.6036154 69.4741487,23.5367751 69.4618366,23.4334764 L67.5288468,23.6613411 C67.5565488,23.8983205 67.7596975,24.2872097 68.1044345,24.9343456 Z" id="Fill-28" fill="#1F5C5C"></path>
                    </g>
                    <g id="Group-6" transform="translate(72.000000, 411.000000)">
                        <path d="M87.8609678,11.7602517 C87.8609678,11.7602517 99.6688782,24.6766485 94.9000649,44.837644 C90.1312516,64.9986395 91.0411911,76.3270543 91.0411911,76.3270543 L97.8520425,89.2404148 C97.8520425,89.2404148 101.257468,94.9031041 98.4211351,105.323667 C95.5817587,115.747266 106.820576,107.931844 106.820576,107.931844 C106.820576,107.931844 108.637412,94.3383533 102.167408,83.4623464 C95.6943599,72.5893758 101.71396,63.3013509 101.71396,63.3013509 C101.71396,63.3013509 110.113401,50.6126762 123.966393,57.2985967 C137.816341,63.9814809 137.70374,89.9205448 137.70374,89.9205448 C137.70374,89.9205448 139.176685,92.9780933 126.124075,113.819219 C126.124075,113.819219 125.442382,126.960301 135.774303,118.917157 C146.103181,110.874013 144.40199,132.05824 144.40199,132.05824 C144.40199,132.05824 146.672274,135.228131 125.554983,146.104138 C125.554983,146.104138 111.930237,160.150037 129.642102,161.734982 C147.353968,163.319928 139.404931,181.218884 139.404931,181.218884 L18.3799366,181.218884 C18.3799366,181.218884 -4.78243604,143.383618 0.896316725,123.447309 C0.896316725,123.447309 2.25666104,100.56883 19.9685266,106.231519 C19.9685266,106.231519 27.2358693,108.044187 35.8635564,126.167829 C35.8635564,126.167829 46.0828768,130.245572 42.6774511,121.409955 C39.2689821,112.574338 34.5001688,98.5284397 34.5001688,98.5284397 C34.5001688,98.5284397 34.9566602,73.8342565 46.5363249,68.8516972 C46.5363249,68.8516972 56.0739514,62.508878 42.9026535,36.682157 C29.7343988,10.855436 50.3951987,-3.87059235 66.9719223,0.887281129 C83.5486459,5.64515461 87.8609678,11.7602517 87.8609678,11.7602517" id="Fill-27" fill="#79A7AA"></path>
                        <path d="M68.1044345,24.9343456 C70.222105,28.9629944 78.6527726,44.9925201 72.7522287,54.4321973 C68.6923343,60.9369764 65.9159698,66.9890642 64.7217022,73.1596417 C63.5151225,79.3636393 63.9029517,85.6587829 66.1683666,92.6101769 C68.3783773,99.3883937 68.4122355,106.801594 68.4430155,113.828943 C68.4645616,118.143182 68.4830297,122.317664 68.9970572,126.164021 C70.7730686,139.504743 73.4170787,150.585046 76.5135561,159.772553 C79.6069555,168.938792 83.1528223,176.224388 86.7540933,182 L89.0472103,182 C85.2981949,176.184892 81.5799596,168.72308 78.3572837,159.174028 C75.2946644,150.095897 72.6845125,139.134083 70.9238911,125.917927 C70.4221756,122.183984 70.4067855,118.070265 70.3852395,113.819828 C70.3544594,106.643607 70.3175233,99.0754595 68.0151722,92.0238049 C65.8574877,85.3974979 65.4850485,79.4092123 66.630068,73.5181489 C67.7812435,67.5967035 70.4683457,61.7481749 74.4051197,55.4408786 C80.8843294,45.0715132 72.0473645,28.2763619 69.8311978,24.0563067 C69.591113,23.6036154 69.4741487,23.5367751 69.4618366,23.4334764 L67.5288468,23.6613411 C67.5565488,23.8983205 67.7596975,24.2872097 68.1044345,24.9343456 Z" id="Fill-28" fill="#1F5C5C"></path>
                    </g>
                    <path d="M677,208.525119 C677.185259,218.575517 679.906257,228.410935 685.147555,236.667919 C690.388852,244.92452 694.124917,251.873232 702.322646,255.62254 L702.357382,255.726389 L702.407556,255.659711 C702.658428,255.77544 702.91316,255.888486 703.167892,256 C703.160173,255.544749 703.148594,255.09103 703.129296,254.637695 C709.173384,245.958416 716.76902,235.161912 718.822312,224.406027 C720.871744,213.65091 720.196319,203.067469 717.185854,194 C710.74037,202.936029 705.410303,216.748764 703.989981,224.200628 C702.565799,231.652492 705.537669,236.037159 705.483635,239.774587 C704.287167,236.658339 701.859497,232.36296 698.285534,226.737849 C694.715431,221.113887 685.560529,212.245303 677,208.525119" id="Fill-127" fill="#21364F"></path>
                    <path d="M392.501897,309 C457.392533,309 510,319.972263 510,333.501914 C510,347.031565 457.392533,358 392.501897,358 C327.607467,358 275,347.031565 275,333.501914 C275,319.972263 327.607467,309 392.501897,309" id="Fill-128" fill="#4977AE"></path>
                    <path d="M379.826348,413 L517.738019,413 C537.125084,413 553,397.248493 553,378.003768 L553,378 C553,358.751507 537.128881,343 517.738019,343 L241,343 L241,349.749031 L379.826348,349.749031 C395.492434,349.749031 408.291846,362.451981 408.291846,378 L408.291846,378.003768 C408.291846,393.551787 395.492434,406.254737 379.826348,406.254737 L241,406.254737 L241,413 L379.826348,413" id="Fill-129" fill="#4977AE"></path>
                    <path d="M249,406 L380.621756,406 C388.427003,406 395.524403,402.791731 400.672384,397.633411 C405.809009,392.467489 409,385.336312 409,377.498099 C409,369.659887 405.809009,362.532511 400.672384,357.366589 C395.524403,352.204468 388.427003,349 380.621756,349 L249,349 L249,406" id="Fill-130" fill="#FEEDC9"></path>
                    <path d="M454.516124,484 L229.527292,484 C197.897261,484 172,509.880025 172,541.498104 L172,541.505689 C172,573.123767 197.89081,599 229.527292,599 L681,599 L681,587.918313 L454.516124,587.918313 C428.956197,587.918313 408.078714,567.048181 408.078714,541.505689 L408.078714,541.498104 C408.078714,515.955611 428.956197,495.08548 454.516124,495.08548 L681,495.08548 L681,484 L454.516124,484" id="Fill-131" fill="#6C547F"></path>
                    <path d="M670,495 L454.467581,495 C441.690705,495 430.06052,500.231677 421.638793,508.647193 C413.228457,517.077907 408,528.711455 408,541.503799 C408,554.288545 413.228457,565.922093 421.638793,574.349007 C430.06052,582.768323 441.690705,588 454.467581,588 L670,588 L670,495" id="Fill-132" fill="#FEEDC9"></path>
                    <polyline id="Fill-133" fill="#DBCC86" points="448 511 644.09825 511 651 513 454.90175 513 448 511"></polyline>
                    <polyline id="Fill-134" fill="#DBCC86" points="448 523 644.09825 523 651 525 454.90175 525 448 523"></polyline>
                    <polyline id="Fill-135" fill="#DBCC86" points="448 534 644.09825 534 651 536 454.90175 536 448 534"></polyline>
                    <polyline id="Fill-136" fill="#DBCC86" points="448 547 644.09825 547 651 549 454.90175 549 448 547"></polyline>
                    <polyline id="Fill-137" fill="#DBCC86" points="448 558 644.09825 558 651 560 454.90175 560 448 558"></polyline>
                    <polyline id="Fill-138" fill="#DBCC86" points="448 572 644.09825 572 651 574 454.90175 574 448 572"></polyline>
                    <polygon id="Fill-139" fill="#6C547F" points="466 513 466 566 489.218085 549.285559 511 566 511 513"></polygon>
                    <path d="M465.134989,413 L295.403192,413 C271.5375,413 252,428.748587 252,447.998116 L252,448.001884 C252,467.251413 271.53371,483 295.403192,483 L636,483 L636,476.254374 L465.134989,476.254374 C445.85521,476.254374 430.103929,463.55074 430.103929,448.001884 L430.103929,447.998116 C430.103929,432.44926 445.85521,419.745626 465.134989,419.745626 L636,419.745626 L636,413 L465.134989,413" id="Fill-140" fill="#65B9B9"></path>
                    <path d="M627,419 L464.114143,419 C454.460888,419 445.673804,422.208269 439.306683,427.366589 C432.950958,432.532511 429,439.663688 429,447.501901 C429,455.340113 432.950958,462.467489 439.306683,467.633411 C445.673804,472.791731 454.460888,476 464.114143,476 L627,476 L627,419" id="Fill-141" fill="#FEEDC9"></path>
                    <path d="M295.399402,413 C271.5375,413 252,428.778698 252,448.068808 C252,462.208848 262.502117,474.464807 277.514346,480 C227.386919,402.269428 477.994493,419.758524 477.994493,419.758524 L636,419.758524 L636,413 L295.399402,413" id="Fill-142" fill="#56A2A3"></path>
                    <polyline id="Fill-143" fill="#E49D94" points="422.25799 112 423 134 402 133.700349 402.768111 126.211296 409.338068 116.809685 422.25799 112"></polyline>
                    <path d="M422.755777,112 L423,117.141253 C419.509487,123.093508 413.881082,129.023716 405.581251,127.850389 C404.664475,127.72104 403.807815,127.546492 403,127.338873 L403.116476,126.029215 L409.736803,116.748061 L422.755777,112" id="Fill-144" fill="#C98C82"></path>
                    <path d="M403.224039,62.2347249 C404.062343,61.3347033 433.029143,61.4513375 428.988669,93.034158 C428.988669,93.034158 436.597599,88.4876999 434.694422,99.972949 C434.694422,99.972949 434.694422,104.041093 428.988669,103.801365 C428.988669,103.801365 422.418178,130.331679 405.251828,127.83411 C388.081702,125.33654 389.271187,108.826518 389.271187,108.826518 L389.271187,80.5918998 C389.271187,80.5918998 385.861329,61.2423836 403.224039,62.2347249" id="Fill-145" fill="#E49D94"></path>
                    <path d="M428.963447,92.5513402 C431.219893,90.7828253 433.196645,91.2470084 434.30786,93 L437.237082,74.9116251 L440,77.2688877 C439.561562,75.3686145 438.83587,74.4894683 439.26675,73.0719304 C439.425494,72.5532266 440.461116,73.1503039 438.998395,69.9441844 C437.320234,66.2583585 436.866677,64.7756986 434.330538,62.8633097 C427.156778,57.4570531 430.61137,58.9764388 420.466812,53.4584905 C414.608368,50.2709232 400.283526,43.733741 393.756085,48.955233 L388.165996,54.7756953 L389.526666,50.6544611 C385.304807,53.3043939 385.089367,62.4385026 385.002436,66.5775317 C384.900385,71.5324781 388.033708,81.5835946 389.061771,86.3549122 C390.554729,83.4070088 391.182149,79.919199 390.108731,73.9188941 L424.276691,73.0753379 C424.507249,74.8408239 425.059077,76.5097628 425.289635,78.2718412 C426.468883,87.3707387 425.093094,82.7811567 428.963447,92.5513402" id="Fill-146" fill="#192126"></path>
                    <path d="M384,136.081623 C384,136.081623 366.899559,133.673634 362.440235,155.015726 C357.977093,176.358956 345,204.146741 345,204.146741 C345,204.146741 378.406755,211.258118 375.008811,210.992754 C371.614684,210.727011 384,136.081623 384,136.081623" id="Fill-147" fill="#D38C47"></path>
                    <path d="M332.16629,261 L458.849961,262.017532 C466.715781,262.084652 431.83258,303.085867 426.924428,309.678923 C426.924428,309.678923 411.215337,312.816282 355.542019,299.476753 C299.8687,286.136074 328.216468,287.76612 328.216468,287.76612 L332.16629,261" id="Fill-148" fill="#D76C54"></path>
                    <path d="M367,261.413809 C367,261.413809 377.019163,167.101488 375.010033,137.354242 C375.010033,137.354242 389.785272,131.970319 404.254034,133.175997 C432.086725,135.496529 465.118181,126.039942 470.173166,163.327406 C473.389287,187.045127 471.380158,209.55717 471.380158,209.55717 L445.654972,209.155656 L454.504981,263.730936 L402.823806,261.697254 L370.840427,264 L367,261.413809" id="Fill-149" fill="#F0A95F"></path>
                    <path d="M471,209 C471,209 469.79887,250.01683 460.596486,260.874249 C451.397866,271.73091 387,250.820859 387,250.820859 L396.601506,242.375906 L447,242.375906 L445.79887,209 L471,209" id="Fill-150" fill="#E49D94"></path>
                    <path d="M337.891993,310 L326,311.209227 C326,311.209227 326.375023,329.764485 337.584474,331 L346,324.424356 L337.891993,310" id="Fill-151" fill="#E49D94"></path>
                    <path d="M338,331.113293 C338,331.113293 334.077697,345.295645 326.694753,342.677482 C319.311809,340.063135 315.553088,324.37324 315.553088,324.37324 C315.553088,324.37324 311.227286,315.064641 326.771091,311 L329.904571,315.194404 C329.904571,315.194404 337.890946,328.85007 338,331.113293" id="Fill-152" fill="#324D78"></path>
                    <path d="M335,308.275624 C339.493594,308.053648 439.985667,266.566236 439.985667,266.566236 C474.869749,250.892436 503.672703,291.270341 451.32953,302.876704 C425.481891,308.61047 346.033176,331 346.033176,331 L335,308.275624" id="Fill-153" fill="#E4715A"></path>
                    <path d="M447.108007,310 L459,311.209227 C459,311.209227 458.628727,329.764485 447.419276,331 L439,324.424356 L447.108007,310" id="Fill-154" fill="#E49D94"></path>
                    <path d="M448,331.113293 C448,331.113293 451.919287,345.295645 459.303398,342.677482 C466.687509,340.063135 470.446825,324.37324 470.446825,324.37324 C470.446825,324.37324 474.773311,315.064641 459.227048,311 L456.093073,315.194404 C456.093073,315.194404 448.105435,328.85007 448,331.113293" id="Fill-155" fill="#324D78"></path>
                    <path d="M450,308.275624 C445.506406,308.053648 345.014333,266.566236 345.014333,266.566236 C310.130251,250.892436 281.327297,291.270341 333.67047,302.876704 C359.518109,308.61047 438.966824,331 438.966824,331 L450,308.275624" id="Fill-156" fill="#E4715A"></path>
                    <path d="M347.772367,205 C347.772367,205 338.669759,245.502372 345.607239,257.95448 C352.54094,270.407724 420,262.560205 420,262.560205 L412.201003,252.394307 L362.599531,242.490675 L370.292728,210.002718 L347.772367,205" id="Fill-157" fill="#E49D94"></path>
                    <polyline id="Fill-158" fill="#2F9089" points="343 197 399 207.574346 399 272 343 260.937385 343 197"></polyline>
                    <path d="M399,208 L399.003737,208 C400.498365,210.510871 403.517515,212.226282 407,212.226282 C410.482485,212.226282 413.501635,210.510871 414.996263,208 L415,208 L415,271.769205 C413.505371,274.28158 410.482485,276 407,276 C403.517515,276 400.494629,274.28158 399,271.769205 L399,208" id="Fill-159" fill="#2B847B"></path>
                    <polyline id="Fill-160" fill="#2F9089" points="471 197 415 207.574346 415 272 471 260.937385 471 197"></polyline>
                    <path d="M407,205 C403.121439,205 399.870621,206.548935 399,208.63281 C399.145726,208.885776 399.254087,209.171163 399.414759,209.41389 C401.085007,211.937149 403.59972,213.864893 406.902849,213.993723 C410.527324,214.137056 413.860346,211.810026 415,208.633664 C414.129379,206.548935 410.878561,205 407,205" id="Fill-161" fill="#ADA787"></path>
                    <path d="M346,196.941864 L398.041166,206.994155 C398.041166,206.996103 398.041166,206.998052 398.041166,207 C398.92167,205.132951 402.138746,203.738218 406,203.692233 C404.906042,199.703273 397.842958,185.013173 353.295597,186.052501 C353.295597,186.052501 350.105203,195.917345 346,196.941864 Z" id="Fill-162" fill="#F7F7DE"></path>
                    <path d="M356,190.055351 C356.100201,190.051935 390.492172,188.445524 404,202.789379 L403.764914,203 C390.36114,188.762783 356.111762,190.362743 356.015415,190.366538 L356,190.055351" id="Fill-163" fill="#AEAA87"></path>
                    <path d="M356,194.080836 C356.091852,194.076975 387.861286,192.376586 401,204.76955 L400.785678,205 C387.742643,192.700451 356.107161,194.392734 356.015309,194.397367 L356,194.080836" id="Fill-164" fill="#AEAA87"></path>
                    <path d="M354,194.081279 C354.091852,194.076647 385.861286,192.37594 399,204.768401 L398.785678,205 C385.742643,192.699792 354.107161,194.393165 354.015309,194.396639 L354,194.081279" id="Fill-165" fill="#AEAA87"></path>
                    <path d="M352,196.165979 C352.083598,196.160377 381.202457,193.960857 395,205.744316 L394.802404,206 C381.103659,194.296967 352.102598,196.488485 352.0228,196.493687 L352,196.165979" id="Fill-166" fill="#AEAA87"></path>
                    <path d="M466,196.941864 L413.962645,206.994155 C413.962645,206.996103 413.958834,206.998052 413.958834,207 C413.082142,205.132951 409.865066,203.738218 406,203.692233 C407.09777,199.703273 414.157042,185.013173 458.704403,186.052501 C458.704403,186.052501 461.898609,195.917345 466,196.941864 Z" id="Fill-167" fill="#F7F7DE"></path>
                    <path d="M458,190.055351 C457.903645,190.051935 423.508913,188.445524 410,202.789379 L410.231251,203 C423.639955,188.762783 457.888229,190.362743 457.988437,190.366538 L458,190.055351" id="Fill-168" fill="#AEAA87"></path>
                    <path d="M459,194.080836 C458.908155,194.076975 427.141424,192.376586 414,204.76955 L414.214304,205 C427.260056,192.700451 458.892848,194.392734 458.984693,194.397367 L459,194.080836" id="Fill-169" fill="#AEAA87"></path>
                    <path d="M460,194.081279 C459.908155,194.076647 428.141424,192.37594 415,204.768401 L415.214304,205 C428.256229,192.699792 459.892848,194.393165 459.984693,194.396639 L460,194.081279" id="Fill-170" fill="#AEAA87"></path>
                    <path d="M461,196.165979 C460.916394,196.160377 431.798763,193.960857 418,205.744316 L418.193814,206 C431.89757,194.296967 460.897393,196.488485 460.980999,196.493687 L461,196.165979" id="Fill-171" fill="#AEAA87"></path>
                    <path d="M471,221 L471,221 C465.496305,221 461,225.210278 461,230.358277 L461,234.640631 C461,239.788994 465.496305,244 471,244 L471,221" id="Fill-172" fill="#E49D94"></path>
                    <path d="M342,221 L342,221 C347.503695,221 352,225.210278 352,230.358277 L352,234.640631 C352,239.788994 347.503695,244 342,244 L342,221" id="Fill-173" fill="#E49D94"></path>
                </g>
            </g>
        </g>
    </g>
</svg>